<?xml version="1.0" encoding="utf-8"?>
<!DOCTYPE svg PUBLIC "-//W3C//DTD SVG 1.1//EN" "http://www.w3.org/Graphics/SVG/1.1/DTD/svg11.dtd">
<svg version="1.1" id="Layer_1" xmlns="http://www.w3.org/2000/svg" xmlns:xlink="http://www.w3.org/1999/xlink" x="0px" y="0px"
	 viewBox="604 5.3811 1352 1589.2377" enable-background="new 604 5.3811 1352 1589.2377" xml:space="preserve">
<g>
	<path fill="#E86A33" d="M915.3415,874.4615C915.0015,875.0303,915.3631,874.4725,915.3415,874.4615
		C915.3415,874.4615,915.3481,874.4648,915.3415,874.4615z"/>
	<path fill="#E86A33" d="M1077.9246,1302.0793C1077.9028,1302.0441,1077.8087,1301.9249,1077.9246,1302.0793
		C1077.9136,1302.0615,1077.9246,1302.0793,1077.9246,1302.0793z"/>
	<path fill="#E86A33" d="M1099.9758,1295.3955C1100.4489,1295.767,1099.9774,1295.3857,1099.9758,1295.3955
		C1099.9758,1295.3955,1099.9763,1295.3925,1099.9758,1295.3955z"/>
	<path fill="#E86A33" d="M1921.6271,1157.4066c-15.8402,4.262-31.574,7.8068-47.3833,11.8837
		c-8.5359,2.2012-17.1522,4.075-25.6818,6.2998c-3.6482,0.9515-7.6428,1.7335-11.1204,3.2063
		c-0.9734,0.1743-5.8862,0.9777-6.5685,1.7056c-13.2382,1.6801-26.5862,3.5917-40.1563,4.9828
		c-18.3778,1.884-37.4912-0.299-55.6061-3.6105c-20.85-3.8116-40.0261-12.0677-59.6396-19.8094
		c-17.4961-6.9059-34.8721-14.1309-51.9623-21.9927c-8.9581-4.1208-17.8365-8.4164-26.6051-12.9274
		c-2.021-1.0396-6.7379-2.0101-6.5885-5.0637c0.1833-3.7488,1.8165-6.8607,1.37-10.7183c-2.5103,3.3973-3.9486,11.2914-9.442,8.3026
		c-1.8812-1.0236-4.8643-2.3961-6.3933-3.9401c-1.5795-1.5948-0.6042-6.5369-0.6042-8.5859
		c-1.5188,1.5348-1.8593,4.2229-3.3301,5.5454c-1.5797,1.4202-7.4988-3.2805-8.9127-4.0743
		c-5.1392-2.8854-4.0541-2.7781-3.1993-8.1219c0.6177-3.8623,0.3225-7.807,0.2489-11.6958
		c-1.9001,2.1919-7.5961,12.0544-9.7888,12.3297c-1.8575-2.7887-3.688-1.0914-2.7828-5.1097
		c0.6624-2.9406,0.2981-6.0087,0.2635-8.9872c-2.1066,2.0208-3.7054,4.4321-5.4446,6.7546
		c-2.1656,2.8923-6.3779-2.0796-9.2546-3.4407c-1.9188-0.9077-3.8307-2.1376-4.9545-3.9965
		c-0.682-1.1281-0.5337-6.4526-0.7958-6.642c-1.2578-0.9081-3.3667,3.3749-4.2043,3.9493c-3.9382-1.589-2.3317-3.9205-1.5759-7.2794
		c1.5253-6.7787,2.5359-13.6708,3.0299-20.6013c-4.9481,6.4144-9.212,13.3337-12.8927,20.5459
		c-3.7007-2.2858-13.5313-6.1227-13.0796-10.5232c0.6647-6.476,1.1686-12.9614,0.2277-19.4408
		c-3.1221,4.0135-6.0773,8.1523-8.8051,12.4442c-2.256-1.3091,0.4319-12.0731-0.2485-14.7712
		c-2.532,3.5717-4.8202,7.3088-6.9707,11.1205c-2.0155,3.5735-5.0087-0.5607-7.5098-1.9203
		c-1.7894-0.9727-3.6583-2.3702-5.675-2.8094c-0.0267-2.2484,0.6652-4.3923,1.4221-6.4772
		c1.3175-3.6287,3.5171-8.2258,2.9193-12.1669c-2.6355,3.1871-5.3057,6.349-7.8167,9.6364
		c-0.7627,0.9984-2.5924,4.7482-4.087,4.8787c-0.5219-2.8706,2.4043-7.7424,1.1216-10.1243
		c0.3629,0.6744-6.095,11.3101-9.6467,6.0476c-1.6512-2.1438,0.9375-9.082,1.4087-11.7198
		c1.3618-7.6216,1.822-15.3745,1.8384-23.1078c-3.1464,2.3924-4.5447,6.5419-6.3716,9.9179
		c-2.4399,4.5089-4.9041,9.0159-6.931,13.7305c-2.1263,4.9456-1.9323,6.1128-7.4078,3.6704
		c0.4669-4.2894,1.2307-8.5208,0.6238-12.8449c-1.3351,1.7864-2.6703,3.5728-4.0054,5.3592
		c-2.6693-0.9316,0.5427-21.0739,0.1257-24.3046c-4.545,7.8501-8.5308,16.0164-12.04,24.3791
		c-0.194,2.6122-1.394,3.1082-3.6003,1.4878c-3.8582-1.1553-2.489-1.8975-2.5752-5.4686c-0.1155-4.7889-0.8835-9.5417-2.225-14.1387
		c-2.7292,3.8818-3.2,8.8518-6.0216,12.6745c-0.2382-6.2999-0.7004-12.589-1.2865-18.8654
		c-0.2576-2.7597-3.1635-15.7758-0.5029-16.8937c4.2378-1.7806,9.0992-1.7081,13.2806-3.8034c2.2355,0,4.3752-1.1252,6.5436-1.7166
		c3.8446-1.0486,9.1588-1.0692,12.5922-3.2982c1.181,0,2.0991-0.5652,3.2275-0.8411c4.0356-0.9868,8.6644-0.9654,12.5854-2.5005
		c1.5178,0.069,3.6143,0.059,4.9563-0.7391c5.2185,0.0793,11.826-0.9597,16.8193-2.5411
		c20.9999-3.0858,42.1101-5.8443,63.145-9.2238c6.7911-1.0911,80.8069-6.527,80.8069-5.9727
		c0,3.6844,28.8673,22.1138,28.6617,22.4631c0.8755-1.4875-12.1805-14.6114-13.7155-16.5037
		c-0.1754-0.6484-3.3484-4.8676-4.0898-4.9089c-0.8683-1.6614-2.155-3.0386-3.4878-4.3322
		c0.0002-3.5771,0.0005-7.1544,0.0006-10.7315c0.0006-10.1941-0.095-20.5527,0.5627-30.6765
		c0.7026-10.8157-0.615-21.8873,0.8379-32.6371c1.4956-11.0634,3.0313-22.1213,4.5654-33.1794
		c1.5541-11.2026,1.9095-23.4956,5.5631-34.2484c3.1302-9.2125,8.4983-17.6497,11.9609-26.7733
		c0.8397-0.5977,2.6438-4.9102,2.6951-5.7916c0.4927-1.0911,1.8982-4.8118,2.3109-5.0181c2.626-1.9636,3.7792-8.1226,5.5291-10.9826
		c2.3502-3.8415,5.2096-7.3456,8.2938-10.6179c7.5159-7.9738,15.3116-15.6638,22.6798-23.7815
		c5.8865-6.4853,11.0916-12.5766,18.3566-17.3361c9.2839-6.0815,18.5679-12.163,27.8463-18.253
		c9.0697-5.9531,18.3231-13.8584,28.3684-18.0273c19.9539-8.2809,41.3237-13.1479,61.4835-20.9323
		c-0.2809,0.2809,0.7853-0.0187,0.4937-0.0187c-0.4227,0,1.0583,1.1162,1.0583,0.6939c7.3359,6.0546,9.6836,15.368,12.2642,24.0889
		c3.7717-6.6564,1.9058-14.4114-1.7902-20.8239c-1.9725-3.4223-4.8274-5.3677-7.4652-8.1478
		c-2.5861-2.7255-3.2183-7.3485-4.4413-10.8261c-3.3918-9.6441-6.9601-19.2237-10.3491-28.8683
		c-1.6478-4.6895-3.3296-9.3732-5.3373-13.9233c-0.3365-1.5763-1.9077-3.5586-1.9077-5.1537c0-0.5646-2.8132-6.9941-2.5999-7.1541
		c-1.8365-7.7375-0.4524-16.1119-1.2205-24.1038c-0.8531-8.8771-0.4869-17.9302-0.6403-26.8503
		c-0.1791-10.4103,3.0399-20.5414,5.2737-30.6484c2.015-9.1172,4.1929-17.3887,5.8832-26.4347c0.455,0,8.3158-19.2335,8.342-19.171
		c1.5656-1.0608,3.2596-6.1884,3.9719-8.0427c1.8088-4.7089,4.2225-9.0934,6.3214-13.7973
		c8.6989-19.4952,19.8463-36.9847,31.1967-55.0425c11.2183-17.8475,22.5234-35.642,34.1288-53.2409
		c5.5531-8.4213,10.7051-17.118,16.7399-25.2131c0.8995-0.8995,21.0885,10.6064,23.561,11.4753
		c-1.2764-3.3094-3.9724-7.0492-6.8063-9.1798c-0.9479-0.7127-8.3755-4.1233-8.3755-4.9463
		c-1.3575-1.4365-3.0815-2.4297-4.871-3.223c-0.256-1.8273-1.1571-3.4187-2.2784-4.847c-3.2108-4.0899-6.3959-8.1855-9.5586-12.3206
		c-13.1962-17.2536-25.1061-34.7762-36.4427-53.3066c-5.64-9.2188-8.3633-18.1553-11.3674-28.5094
		c-2.9004-9.9961-8.2212-21.3297-7.655-31.862c0.5477-10.1927,1.3641-20.3654,1.9253-30.5392
		c0.2692-4.8808,0.3055-9.8043,1.2715-14.6153c0.4058-2.0207,3.2865-7.6776,2.92-9.7073c0-5.2665,5.7034-10.6873,5.0696-15.8867
		c0-1.7875,1.8353-5.4754,2.4933-7.2344c2.1267-5.6848,3.0422-10.83,6.7574-15.6881c4.5569-5.9588,8.382-12.749,12.5935-18.9896
		c2.5458-3.7722,4.8815-7.6883,7.6118-11.3341c2.5581-3.4158,3.4847-8.3637,8.1852-8.3544
		c4.9659,0.0098,9.9318,0.0195,14.8977,0.0292c1.0233,0.002,7.3661,1.3726,4.6975-1.8377
		c-5.4026-6.4983-22.4489-5.9467-30.2419-5.9001c-10.5652,0.0632-21.1494,1.3308-31.5642,3.0331
		c-10.785,1.7628-23.2836,2.3747-33.5533,6.12c-2.7083,0.9877-5.3203,2.5763-7.8254,3.9075
		c-2.2285,1.1842-5.9757,2.5955-7.6813,4.4802c-0.8478-0.4121-6.1625,2.946-7.0626,3.4206
		c-1.8524,0.9767-6.5667,5.0062-8.5029,5.0062c-1.2699,0-11.6027,5.2822-11.6027,6.3853c0,1.0101-16.0402,8.5745-17.8383,9.4252
		c-7.3317,3.4683-14.0697,8.3455-21.2537,12.0141c-8.5903,4.3867-17.0372,9.0527-25.3411,13.9595
		c-3.464,2.0469-7.1022,3.7749-10.6238,5.7152c-2.1477,1.1833-7.8822,3.084-9.0851,5.2633
		c-1.1932-0.1571-16.6754,9.9061-17.0403,9.402c-10.5037,7.1663-22.2283,10.1401-31.9185,18.9058
		c-8.8599,3.4111-16.0802,9.4191-24.2227,14.2666c-9.9077,6.1812-19.8201,12.3549-29.7225,18.5445
		c-3.8236,2.39-7.8759,4.6208-11.0205,7.9143c-1.6311,1.7084-2.3447,3.2759-4.4563,4.4909
		c-2.3796,1.3691-4.8218,1.727-6.8096,3.7914c-2.7891,2.8966-2.9281,7.2594-6.214,9.7726c-1.928,1.4746-3.0109,1.6022-4.4175,3.4777
		c-0.5063,0.8142-0.6826,1.0803-0.5288,0.7983c-0.1046,0.2616-0.3344,0.9496-0.3344,0.7788
		c-1.2303,0.4883-2.5752,4.5844-3.2893,6.0127c-0.3025,0.1124-0.7554,1.3571-0.8542,1.5549
		c-2.2332,1.004-5.1119,8.8085-6.0183,10.4819c-3.845,7.0989-8.3009,13.6252-12.307,20.5038
		c-7.2229,12.4022-11.9115,26.1599-18.376,39.0887c-0.3043,0.1086-0.7778,1.6285-0.8113,1.6786
		c-0.48,0.7195-0.6399,0.9589-0.4795,0.7184c-5.3307,7.996-8.8185,18.1515-12.9133,26.8677
		c-4.4839,9.5442-9.9594,19.4104-15.6423,28.2935c-1.4753,1.5909-2.0371,4.2578-3.0999,6.2378
		c-3.4626,6.4524-6.9293,12.9027-10.3975,19.3522c-3.0345,5.6433-6.0703,11.286-9.1055,16.929
		c-0.7726,1.4363-4.1477,5.9764-3.9812,7.3446c-6.2336,8.5013-10.8536,19.5547-15.8196,28.9906
		c-3.2094,6.0984-6.3003,12.2611-9.1653,18.5294c-2.1256,4.6508-6.0675,10.8534-6.6526,15.9143
		c-3.7458-6.5274-14.759-12.6372-22.2416-11.6215c-11.1053,1.5074-19.0935,6.3398-28.5968,12.5576
		c2.2548,1.2846,4.8124,0.7363,7.2531,0.6929c1.8883,2.3333,7.4052,1.7455,10.0542,2.601
		c5.4183,1.7498,11.3728,3.6524,13.2383,9.6768c1.3938,4.5014,3.3878,12.0732-0.7504,15.499
		c-0.3346,0.3955-1.3234,1.3063-1.5092,1.5264c-0.0121,0.006-0.0157,0.0188-0.0112,0.0385
		c-0.0854-0.1574-5.7286,4.9509-6.0345,5.6632c-4.7709,1.6786-1.7025,17.0072-0.9072,20.2744
		c-1.1053,5.7706,7.5774,6.3204,11.1141,7.5947c-3.3386,4.391,5.5815,11.1204,5.5815,15.678
		c2.121,11.7725,4.2424,23.5449,6.363,35.3174c3.8202,21.2078,7.3939,42.4661,11.2594,63.663
		c2.905,15.9285,6.4172,31.8847,8.1191,47.6893c0.9116,8.465,2.475,16.784,1.1156,25.2329
		c-1.824,11.3363-3.5801,22.6942-5.5015,34.0139c-1.731,10.1981-4.6168,19.8347-7.6069,29.7074
		c-3.0173,9.9628-5.7585,20.4636-11.8483,29.0789c-4.1113,5.8165-7.7241,12.347-13.3268,16.8655
		c-7.8728,6.3494-15.2477,13.3089-23.3806,19.3363c-6.881,5.0997-14.4513,8.5536-21.7787,12.7531
		c-9.3073,5.3345-18.932,10.1384-28.9148,14.0793c-3.0497,1.2039-8.7583,4.6569-11.916,4.6569
		c-0.2391-0.0374-3.4504,1.3091-3.535,1.4396c-0.7656,0.3419-3.042,1.8844-3.921,1.8844
		c-11.0193,5.5038-21.7692,11.5231-32.535,17.5015c-1.9175-2.5225,5.4265-15.3884,6.5995-18.293
		c3.2518-8.0524,6.4907-16.1229,10.0425-24.0488c1.3732-3.0643,2.7938-6.1069,4.2231-9.1452
		c1.0627-2.259,5.0876-7.8868,4.8885-10.2761c0.6362-1.2982,3.4644-5.3395,3.2715-6.6591c2.9169-2.9168,4.8925-9.4529,6.668-13.2288
		c1.3973-2.9716,2.4636-6.3467,4.2445-9.2818c0-2.4532,3.8173-8.1011,4.9822-9.998c0-1.3036,2.6025-2.9708,2.394-4.1517
		c-1.3589,2.0825,0.0481-0.1975,0.29-0.6648c0-2.7264,4.999-8.5333,6.3418-10.9951c0.9058-2.9439,5.3999-6.4276,5.1802-9.225
		c1.9862-0.9931,3.0094-5.4581,4.2278-7.4904c0-2.3709,5.1864-5.996,4.8059-8.2957c-1.4736,2.1805,1.314-2.9768,1.8323-3.3655
		c2.6211-2.621,3.3395-7.507,5.8567-10.0242c0.6492-1.2984,4.1547-5.3068,3.9658-6.6068c-1.6292,2.3647,0.7576-1.3567,0.9529-1.6973
		c0.368-0.642,3.0826-3.6942,2.708-4.6722c1.8127-0.7928,2.2671-4.6526,3.7285-6.114c5.3766-8.0649,10.307-17.0323,15.5261-25.4557
		c2.4058-3.8828,4.7885-7.7799,7.1351-11.6987c1.1482-1.9172,5.1608-6.3593,5.1488-8.7268c1.0604-1.7683,4.0029-4.7841,4.1791-6.662
		c-0.0006,0.0009,1.1241-1.1812,0.0001-0.0001c0.2388-0.0539,4.1167-4.0139,1.6648-1.6754
		c2.8607-0.2988,8.3416-7.5059,10.2964-9.339c2.4119-2.2617,4.8214-4.5259,7.2494-6.7703c1.6984-1.5702,0.7202-0.5564,2.5692-0.5564
		c-1.5549,0.7775,7.9072,16.7283,8.8792,18.1729c0.2079-8.8903-3.7883-16.6605-6.2616-24.9525
		c-2.2433-7.5203-5.5211-15.5435-8.4595-22.849c-3.92-9.7459-7.1493-20.3751-9.7813-30.4664
		c-5.2133-19.9886-14.0436-39.0938-19.9122-58.9246c-2.8029-9.4716-6.5355-19.4725-7.515-29.3489
		c-0.3456-3.4843-1.2548-8.6374-2.9208-11.7303c-0.6803-1.263-2.5547-2.4458-2.5547-4.0733
		c-1.2759-4.5448-4.1261-8.7837-5.2654-13.394c-0.9135-3.6963-4.8094-8.2454-4.7483-12.3528
		c-1.2606-0.7617-2.2522-4.9033-2.8445-6.2283c-1.6827-3.7649-3.1918-7.6037-4.703-11.4396
		c-2.804-7.1166-5.7986-14.1541-8.6663-21.2448c-5.5756-13.786-12.6465-27.9561-16.23-42.4039
		c-0.7572-3.0524-7.0731-35.1025-6.396-35.2122c1.6136-0.2614,5.1366,5.4993,6.399,6.4713
		c1.2614,2.2125,2.6356,0.1723,1.0444-1.0247c-0.7083-5.6198-7.5793-12.1808-11.0825-16.3032
		c-3.4501-4.0596-8.7974-10.7057-10.0167-15.9542c-2.646-2.0156-4.5513-6.8477-6.1718-9.6862
		c-2.4397-4.2738-4.662-8.6682-6.7683-13.1146c-12.5939-26.5849-22.635-53.89-33.5615-80.8064
		c-0.1971-1.1369-0.9513-4.9837-1.8596-5.6433c-1.3987-4.9069-3.0524-9.8414-4.9093-14.7695
		c-1.444-3.8322-2.9647-7.6389-4.7036-11.3481c-0.2489-0.5307-1.4072-4.3542-2.0457-4.7166
		c-1.7649-1.7649-3.4415-7.59-4.1125-9.9849c-2.7234-9.0216-6.3071-17.7747-9.1431-26.768
		c-0.8236-2.6121-4.8352-10.523-3.8947-13.0394c0.5271-1.4104,6.3138,0.5024,6.6682,0.5811
		c-0.5864-8.4451-17.3375-8.6579-22.9878-7.6256c-0.6421,0.1173-12.3357,3.4289-12.1862,3.598
		c-0.1627,0.0086-3.0201,0.8544-2.6812,2.2224c-6.6478,8.4722-9.6285,20.6603-13.6331,30.4912
		c-4.9263,12.094-9.5365,24.2574-13.8812,36.5712c-3.5011,9.9227-7.9796,19.1472-10.9912,29.1277
		c-1.1737,3.8898-1.4788,6.7683-3.2141,10.2512c-2.051,4.1165,1.7717,5.2977,1.7717,8.5748c0,29.7044-2.6998-28.9736-1.6655,1.7235
		c0,8.0569-2.3699-4.2985-1.1111,3.5345c0.8976,5.5852,2.6609,11.1368,3.9872,16.6347c2.4833,10.2935,5.8009,20.6977,7.1281,31.2163
		c3.016,23.9032,4.9697,47.0341,4.5033,71.1137c-0.1589,8.2013,0.1472,16.3576-1.7854,24.1846
		c-2.4219,9.8081-3.6776,19.9031-5.7318,29.7751c-3.9501,18.9821-11.9478,37.2675-11.9478,56.9932
		c-0.4977,0.0625-5.7466-9.5247-6.9641-10.9445c-2.9423-3.431-5.3594-4.9782-8.9012-7.3674c16.6383,0-1.6127-0.5497-1.6127-0.8645
		c0.2274,0.2274-0.0391,0.0482-0.7996-0.5376c-8.0743-8.0744-24.0903-5.2573-33.8076-2.6677
		c-2.3917,0.4562-17.4126,4.313-15.9033,8.5049c1.2017,3.3374,7.0331,2.0316,9.4769,2.0466
		c4.9467,0.0304,9.6732,1.8947,14.3492,3.2869c3.5471,1.0561,7.1163,2.1062,10.4751,3.6841
		c4.6127,2.167,5.9598,5.7353,7.9452,10.2605c0.9623,2.1935,1.6454,6.3202,4.0006,7.5449
		c-0.8822,4.0822-2.1051,8.2177-2.0929,12.4271c0.0204,6.9652,3.5342,13.2858,9.4286,16.9929
		c4.8392,3.0435,2.792,1.343,2.8992,5.1551c5.9976,11.8154,14.9321,22.1184,20.9957,34.0122
		c6.319,12.3945,11.3065,26.366,15.6857,39.4938c4.1056,12.3078,7.7361,25.3298,10.5461,37.8632
		c1.2666,5.6493,2.3641,11.558,3.8311,17.3381c1.042,4.1057,2.255,8.1747,3.8206,12.1138c0.5826,1.741,2.3431,4.3589,2.3431,6.1578
		c0,5.6599,3.3275,12.8639,4.7161,18.4396c2.1893,8.7915,4.0697,16.9441,4.476,26.0207c0.7916,17.6879,0.1296,35.4513-2.296,52.9963
		c-1.9341,13.9907-6.8478,26.7422-12.9662,39.4348c-2.0123,4.1743-4.2388,8.5168-6.1422,12.6428
		c-0.5498,1.1919-0.6157,2.927-1.9503,3.4695c0.2896,2.1959-3.4425,6.1244-4.3845,7.6923
		c-3.3574,5.5879-6.4652,11.0778-10.7766,15.9421c-11.0072,12.4191-20.9055,25.9338-32.1665,38.0801
		c-1.6826,3.1021-4.5577,5.0341-5.9315,8.3224c-1.2919,3.092-1.9653,6.2318-3.0164,9.4077
		c-0.781,2.3599-1.8116,3.4077-2.7555,4.8235c0-0.8958-4.9878,4.0712-5.0876,4.2006c-1.9025,2.4666-10.1738,16.8525-12.439,16.5972
		c0.2047-0.0007-4.1646-2.5871-4.1646-3.3508c1.265-3.7061,2.7405-7.4496,4.1256-11.1553c2.0574-5.5044-1.2516-4.3222-4.991-2.1161
		c-1.4164,0.8357-8.1814,6.3907-8.3856,4.9833c-1.8746-0.9234-4.4413-3.6171-5.8866-5.0624
		c-0.2695-0.1348,0.7902-4.8754,1.0746-4.991c2.6498-7.1884,4.0675-15.1329,5.2725-22.6727
		c-2.2186,1.4054-15.1693,18.988-14.7598,19.1927c-0.1805,0.0903-4.2983-3.6444-4.7222-3.9299
		c-2.2405-1.5092-3.0172-3.6332-2.1989-6.2207c0.2544-0.8044,2.7684-9.6395,1.4139-9.636
		c-1.3491,3.3741-3.7399,6.3033-6.7687,8.4144c-2.9729,2.0721-5.3341-4.7902-4.8632-6.8058
		c3.6014-5.2258,3.7938-13.4018,5.0011-19.4785c0.8159-4.1071,5.2144-15.2169,2.8173-19.0037
		c-5.2611,2.5195-9.2719,9.1908-12.3397,13.8882c-2.1078,3.2275-4.3469,6.3701-6.7366,9.3953
		c-1.1433,1.4472-4.0858,3.79-4.0858,5.8868c0-1.0812-9.0176-4.1718-9.0176-5.7204c0-4.4907,3.4484-8.1114,3.9164-12.9418
		c0.2151-2.2204,3.6572-11.171,1.203-12.7117c-2.0944,2.7669-4.9615,3.156-6.6172,6.8135c-1.3416,2.9635-4.8094,5.547-6.7992,8.3546
		c-3.0461,4.2982-3.0532,1.6863-6.988-0.6814c-4.8043-2.8907-3.5115-2.645-3.8297-7.1797
		c2.0914-1.3934,4.7448-20.6555,3.1694-22.0514c-2.2437-1.988-13.9464,17.5921-15.1263,19.4124
		c-0.6667-0.6197-4.2505-3.847-4.6933-4.0352c2.8702,0.3347,6.0997-31.7506,6.5792-35.025
		c1.7509-3.7838,0.7773-9.4861,0.9073-13.301c1.7224-2.6604-1.7711-3.1139-2.9596-0.8081
		c-1.3425,2.6046-2.4217,5.1232-4.4147,7.5723c-3.0433,7.4293-7.3203,14.3289-11.8014,20.9648
		c-2.1396,3.1683-3.9817,7.9857-6.6331,10.6371c-0.4542,0.9085-1.478,0.9948-2.1228,0.6724c-0.5032,0-3.8139-1.4564-4.2052-1.9592
		c2.5292-0.1078,2.7525-7.6393,2.879-9.6943c0.0504-0.8193,0.7192-9.8159-1.8937-6.9202c-1.2516,1.3871-3.6339,5.647-4.187,7.6326
		c-0.7118,2.5555-2.1315,4.0973-5.0209,4.3133c-4.1597,0.311-3.3041-2.6094-2.9178-5.5532
		c0.6284-4.7885,3.476-17.5022-0.9658-20.9339c-1.4407-1.113-10.865,16.645-11.2134,17.8129
		c-0.5568,1.8664-0.0972,5.2088-2.6857,3.1578c-2.0598-1.632,0.0663-7.4758,0.0229-9.7983
		c-0.146-7.8208-3.1849-15.2223-4.7114-22.8116c-4.1832,5.1915-7.1707,11.1167-10.1073,17.0637
		c-1.2025,2.4351-2.0707,10.2168-5.4107,10.3455c-2.6148,0.1008-0.9464-1.3207-3.0457-1.7303
		c-1.6339-0.3188-4.3965,0.6204-5.0855-1.5877c-1.4995-4.8057,0.6432-11.7269,0.0598-16.8607
		c-0.3665-3.2252,1.022-8.6298-0.8765-11.2709c-2.4189-3.3651-6.7251,9.6047-7.0876,11.0753
		c-0.7106,2.8824-2.5109,4.5076-3.3573,7.4567c-1.2997,4.5284-2.0325,8.4606-7.7377,7.8569
		c1.0707-3.3889,3.9037-31.3215-0.3067-31.5636c-2.5579,2.4439-4.1715,4.6862-4.9119,8.4106
		c-3.5556,4.3706-6.1652,9.4523-7.5611,14.9152c-1.5288,5.9833,0.0178,6.1135-6.1808,5.6361
		c-8.1564-0.6282-5.3556-3.207-6.7986-10.1655c-1.7711,1.608-6.5073,12.7337-6.5637,6.0693
		c-0.046-5.4286-0.6149-10.8166-2.2568-16.0118c-2.2509,4.4097-4.6282,8.8375-5.9516,13.6364
		c-1.0287,3.7303-1.1558,5.0308-5.1198,4.3632c-3.8508-0.6486-2.7162-1.7618-2.5829-5.342
		c0.1633-4.3807-0.5818-8.7294-1.5426-12.9866c-1.9377,3.5959-3.5565,7.3608-4.7767,11.2603
		c-1.0494,3.3533-0.2539,6.6851-4.0682,6.6851c0.3474-5.1832-0.5678-10.337-1.9105-15.3241
		c3.3828-1.821,8.1401-2.3787,11.8316-3.4514c8.4973-2.4691,14.8217-5.4625,21.6931-10.8955
		c0.1682-0.7297,2.3277-1.5878,2.5334-2.4796c3.9128-0.5406-1.2199-4.1085-4.1125-1.8014
		c-6.1442,2.0157-13.1295,1.8556-19.4847,1.5109c-3.8904-0.211-8.1254,0.5654-12.0652,0.8033
		c-5.6294,0.3399-11.265,1.1807-16.6154,3.0134c-3.3562,1.1497-6.6483,4.0294-9.5759,5.0391
		c0.0728-0.1456-6.7346,0.0981-7.1178,0.2308c-4.1718,1.4446-8.4726,1.9814-12.601,3.6758
		c-5.0671,2.0796-10.1651,4.7276-15.7795,4.722c-0.6669,0,2.0246-8.4844,2.1639-9.1478c2.0385-3.3422,6.0834-6.7399,8.4304-9.9589
		c2.3081-2.1046,1.3992-8.5367,0.0372-10.7798c-1.8206-0.5778-1.9246,1.4586-2.799,2.458c-1.7595,2.0109-4.961,2.9774-7.2603,4.1733
		c-3.7451,1.948-7.5465,5.4293-11.4321,6.8265c-0.0939,0.9169-11.955,3.8101-13.7666,4.7024
		c-0.8155-0.8155-5.0643,2.1437-5.5765,2.6643c-1.7706,0.4837-1.9966-2.2953-3.8695-1.7667
		c-1.6152,2.2236,0.4056,3.8494-3.0875,4.3778c-3.4213,0.5176-3.9135-1.8147-5.5301-4.2647c-0.2022,0-0.0811-4.7633-2.144-4.768
		c-4.3658-0.01-1.858,10.4716-2.145,10.4716c-1.4193,0-2.373,1.3354-3.8972,0.8116c-2.9615-1.0175-6.215-0.7231-9.2889-0.8073
		c0-1.1453-3.0881-6.1867-4.6081-5.9277c-3.4224,0.5836-0.3677,9.5623-0.3649,11.5378c0.0059,4.2385,2.7785,7.3447,4.4205,10.9847
		c1.0615,2.3533,0.7743,5.0939,0.5598,7.5948c-0.536,6.2505-9.7664,10.5081-15.1663,11.3206
		c-6.3934,0.9622-12.8131,1.7359-19.233,2.4964c-2.1926,0.2597-15.221,3.3118-16.4954,2.0375
		c-2.4652-2.4652-8.1752,0.426-10.9124,0.7223c-0.0081-0.0162-7.4393-2.4713-7.9384-2.4713
		c-0.9177,0.0918-3.5795-1.7253-4.3865-2.0942c-6.7929-0.8174-9.317,5.4324-11.0577,11.2709
		c-2.6327,2.6327-5.2545,5.7895-7.4154,8.778c-2.358,3.261-6.2103,5.2078-8.8235,8.4148
		c-3.2966,4.0457-6.5009,10.7422-5.9637,16.2254c-0.3447,0.1724-0.7546,4.9629-0.7886,4.9968
		c-0.5754,3.3813-1.0165,7.6642,1.3062,10.5361c3.5104,4.3403,6.2099,3.1482,8.8901-0.7526
		c3.5341-5.1436,6.9145,0.1257,9.6288,2.7412c0.9395,0.9382,2.2334,1.2234,3.3306,1.6766c3.7295,3.3651,0.192-5.4172-0.2326-6.563
		c-2.1077-5.6879,10.9033,0.3057,13.5518,0.7192c0.0578-2.348,3.1654-1.6708,3.9684-0.0278
		c1.5007,2.8507,3.1774,5.8375,6.0694,7.512c4.0549,4.2751-0.5186,6.6931,1.0286,11.0391c1.0023,2.0364-1.368,2.3741-1.8561,3.219
		c-2.4101,4.1716-1.7625,7.1007-0.8538,11.475c-0.2052,0.5203-4.8403,2.71-5.3461,3.1852
		c-2.8366,2.6652-4.3358,6.2975-5.2965,9.9953c-0.9418,3.625-2.9148,7.1574,2.2117,5.4688
		c5.4061-1.7806,10.6896-3.1612,16.4982-3.8563c9.396-1.1245,20.5867,0.5356,28.7816-5.2964
		c7.2407-5.1528,13.0963-10.5628,21.013-14.5654c17.2184-8.7034,36.8901-6.9996,55.4612-8.938
		c3.8194-2.0463,8.6,1.3722,12.8321,0.4562c2.6402-0.5714,5.3866-1.6343,7.6315-2.9907
		c8.1443-4.9208,15.8256-10.2766,20.7075-18.614c2.1671-3.7012,4.2004-4.8569,8.3958-4.3361
		c3.0656-0.1926,6.5214-0.4176,8.7665-2.9124c3.8965-0.0285,8.3699-0.3188,12.3695,0.0817c2.2106,0.2214,4.5288,1.5393,6.749,1.3309
		c2.7969-0.2625,3.0843-1.9901,5.8024-0.9121c2.8062,1.0935,5.722,1.8535,8.4038,3.2442c1.908,0.739,2.9873-1.1318,4.5398-1.2148
		c2.0262-0.0602,3.5872,1.022,5.4542,1.5695c0.4724,0.0654,12.3613,3.4111,11.554,4.5643c0.3651,0.3129,0.8879,0.9965,1.3256,1.2994
		c2.1935,2.2539,4.533,1.2704,7.2853,1.8735c2.9989,1.3762,6.5231,5.8146,9.9581,5.7192c-1.3403,1.6227,4.681,1.9891,5.0745,2.2144
		c1.506,1.2337,2.4839,2.9778,3.9945,4.2162c1.2766,1.0466,4.9451,3.3452,6.5698,3.2045c4.0915-0.3542,4.3576,1.332,7.7963,4.2743
		c3.5355,1.3111,6.5021-0.7303,8.0305,3.239c1.4503,3.766,3.5758,7.2841,7.1558,9.3627c2.2722,1.2119,3.0586,4.7542,5.5296,6.4192
		c3.698,1.8423,0.7517,0.9959,3.1993,2.8797c1,0.9979,2.0141,2.2161,3.1545,3.5585c1.1194,1.3176,7.8771,6.7063,7.8771,8.0755
		c0.0159,0.2603,2.0245,2.3128,2.1992,2.4025c1.4279,0.7329,2.1451,3.1975,3.2412,3.6711
		c-0.9076,4.2202,7.6946,10.0179,9.5564,12.9709c2.1632,0.3424,4.733,5.059,5.4467,6.8307c0.864,2.1451,1.646,4.324,2.5981,6.433
		c0.7848,1.7383,4.1987,5.2343,4.3765,6.8203c3.6724,3.8591,7.0924,7.3458,9.8242,11.9312c1.1664,2.8548,1.136,5.9829,2.6632,8.9385
		c2.0278,3.9246,5.1159,7.1438,8.2496,10.1995c2.7584,2.6897,1.1154,4.8246,2.7021,8.2606c1.1741,2.5424,1.5176,5.3513,2.7,7.9733
		c1.5899,3.5258-1.4916,8.5028-1.5903,12.839c-0.0884,3.8881,0.9668,7.585,1.1428,11.4324
		c0.1053,2.3025,0.3474,4.6061,0.2014,6.9137c-0.2117,3.3462-3.1281,4.132-5.511,6.1774c-3.2589,2.7975-6.1299,6.0159-8.7512,9.4104
		c-0.9036,1.1702-5.6924,6.0712-5.5709,7.614c-1.7176,3.0314-3.9305,5.7699-5.7485,8.7456
		c-1.2382,2.0267-2.3596,4.1313-3.2197,6.3488c-1.3034,3.3606-2.3826,2.796-5.9797,3.9594
		c-14.2137,4.5968-29.0198,6.9736-42.0294,13.5009c-6.8331,3.4283-15.3851,5.4227-22.7012,8.136
		c-8.0213,2.9746-15.6233,6.1951-23.7615,8.8688c-7.3043,2.3998-14.5057,3.8026-22.1173,5.5358
		c-3.9712,0.9043-8.1765,2.304-12.2507,2.3932c-3.5157-2.1243-7.1425,1.1268-10.8544,0.2823
		c-7.0939-1.6133-14.5922,0.3042-21.3929-1.9292c-5.1529-1.6924-14.078-1.3168-17.8765-5.6494
		c-6.3295-1.5668-9.5375-6.8445-16.2486-8.4679c-3.7474-0.9064-7.6083-1.1641-11.386-1.9052
		c-2.6603-0.5217-5.7747,0.2665-8.1469-0.4402c-4.1421-2.4176-9.0012-2.4794-13.6453-2.7538
		c-3.569-0.2111-4.2674,3.1984-7.3211,2.9636c-3.4693-0.2666-6.4244-1.6001-9.7703,0.2858c-2.9452,1.66-6.1914,5.9901-4.5438,9.4939
		c1.7791,3.7833,7.5231,2.9749,10.8885,3.1587c3.921,0.2141,6.741,2.0731,11.2421,2.9679
		c7.5828,1.5076,14.8967,3.0251,21.3802,7.4884c-1.0202,1.2892-3.5371,0.2559-4.5453,0.1726
		c-3.3107-0.2734-6.7086,0.8337-9.9377,1.3981c-6.2291,1.0885-12.8199-0.0057-18.7966,1.026
		c-2.0093,0.3468-3.8149,1.3546-5.4916,2.4635c-2.0543,1.3586-3.8894,0.7942-6.0494,2.014
		c-3.7412,0.8047-10.1012,2.8699-9.1061,8.0645c0.5871,3.0647,2.4659,3.7756,4.9405,4.4806
		c2.7051,0.0812,6.8158-0.926,9.3256-0.2406c2.9792,0.8137,3.85,1.517,7.1501,1.2207c12.6693-1.1373,24.8959,0.6788,37.4598,1.6917
		c-0.9221,1.4701-3.2719,2.1653-4.8473,2.5592c-2.7719,0.9241-5.3332,1.1167-8.2249,2.2599
		c-3.7842,1.4962-7.731,2.5212-11.6836,3.4597c-2.1852,0.5189-6.5377,2.6252-8.4426,2.6252c0,0.2004-2.3342,2.4706-2.4531,2.4706
		c-0.1741,0.351-0.8486,0.5216-0.8486,1.2384c0-0.0895-8.1797,1.7014-8.9594,3.9987c-1.5192,4.4763,3.0075,6.5906,6.5626,6.6469
		c2.8715,0.0454,3.9976-0.7805,6.3176,0.9413c1.9239,1.4279,4.2044,1.9781,6.5592,1.4763
		c4.6137-0.9833,10.0168-2.8239,14.3466-4.5262c6.5948-2.5929,14.173-1.8569,21.113-3.0564
		c7.2086-1.2458,17.1311-1.3435,23.3217-5.2717c5.9207-1.269,10.4683,3.8832,16.3948,2.1941
		c3.1927-0.91,5.1881-1.9677,6.8083-4.7831c2.4352-1.9769,1.515-1.2164,4.8111-1.6251c3.8748-0.4802,10.77-0.6477,13.6329-2.5564
		c1.0677-1.0676,8.4193-0.8436,9.9993-0.8436c4.5934,0.0699,9.2153,0.2563,13.7421-0.693
		c11.0181-0.277,21.8468,1.576,32.8263,0.3535c10.5393-1.1735,20.7183-1.307,31.0602-3.5087
		c10.0844-2.1469,20.1771-4.4817,29.4868-8.8302c4.71-2.2,9.4153-4.4121,14.1807-6.4904c3.8929-1.6976,10.2545-5.6809,14.527-5.6809
		c6.9863,0,1.976,12.4497,3.6432,15.3375c7.2157-0.6777,7.7505-13.2295,6.3954-18.0155c-1.0091-3.5638,1.4185-4.4708,4.4748-6.4531
		c1.3313-0.8635,4.1654-4.2208,5.5382-4.5641c2.7823-1.3912,7.2611-5.045,9.1593-7.402c4.1447-2.0723,3.1489,3.3507,5.2406,5.0615
		c0.0629,0.0459,1.2112,7.5735,1.4758,8.4044c0.8906,2.7963,2.14,5.8729,3.3477,8.244c0.8262,1.8755,0.0122,3.6398,1.7585,4.8694
		c5.0525,4.2705,10.6229,7.9419,15.2589,12.694c4.8662,4.988,7.0958,9.4891,14.1974,11.9241
		c3.0162,1.0342,5.0554,2.6476,7.7639,4.1461c3.6595,2.0247,7.4354,1.8779,11.103,3.532c2.1456,0.4741,5.0017,0.8379,6.8921,2.0215
		c5.1421,1.5629,10.7815-0.1364,15.9471,0.6165c5.0132,0.7305,9.1335,3.9647,14.3333,4.0331
		c3.276,0.0431,4.7478-1.4254,7.348-3.0419c3.2629-2.0284,5.8717-0.9327,9.3367-0.7517c-0.3365,1.7051-6.3699,9.8313-8.0293,10.2571
		c-1.2275,2.6766-7.1145,10.3275-10.0717,10.7821c-6.4814,8.6355-18.9099,9.3363-28.4938,11.7323
		c-1.2948,0.6475-2.2037-1.4749-2.5276-2.1954c-1.0862-2.4158-2.5059-2.8097-4.5519-4.261
		c-2.0325-1.4417-4.4043-2.8148-6.9579-1.7858c0.0553-0.0223-5.8901,3.6661-5.8901,2.1528c0-1.4059-8.8074-7.0516-9.9436-9.3722
		c0-0.1772-3.1594-1.5587-3.348-1.6444c0-4.8945-9.4928,1.5524-10.051,1.6554c-3.8875,0.7175-4.3342-7.3165-9.0707-7.4188
		c-5.3837-0.1162-11.2142,4.6177-16.2241,6.3499c-5.2208,1.8049-10.6848,2.302-13.3667,7.8314
		c-5.1433,2.6715-8.2614,4.7275-11.4304,9.4839c-2.9695,4.457-4.2062,12.9164-2.3093,17.8756
		c3.0939-1.0067,4.7112-6.2936,6.9314-8.5135c1.4069-1.4067,5.8781-5.5293,7.9775-5.5293
		c-0.3411,0.1187,1.2755-0.5996,0.9115-0.5996c1.7705-0.4133,7.9144-0.9988,9.2626-0.1221
		c-7.2545,7.1987-8.2515,14.6704-8.1134,24.7211c0.0776,5.6406,7.703-6.4756,8.701-7.1896
		c2.6926-3.6328,6.1121-5.7261,10.0836-5.7261c0.3639,0.098,0.6481,0.0448,0.8525-0.1597c0-0.0352,6.2418-3.0032,6.5616-3.2217
		c5.0397-3.2749,6.5499,0.7751,10.0286,3.3136c0.3029-0.2271-1.8309,10.9855,0.6587,1.0269c0,1.6543,1.1237-2.2794-1.0698,2.277
		c-1.551,3.222-1.4703,6.917-2.8262,10.2032c0.822,1.2111-1.2699,4.9038,0.9697,5.6135c2.076,0.658,6.1976-5.1749,7.4006-6.4199
		c4.8201-4.9879,5.032-0.1567,10.073,2.469c2.5886,1.3483,5.8546,2.2655,7.3499,5.0118c0.649,1.1923,1.0693,7.1638,1.0464,7.1733
		c-2.6393,1.5778-1.8368,15.6062-1.9329,18.7073c-0.1803,5.8256-1.5469,13.3914,2.7305,18.1534
		c-1.5698,3.7994-2.5469,7.9866-4.4741,11.6158c-0.8094,1.5244-4.8674,7.3945-7.0879,6.7852
		c-4.6484,3.1418,6.6462,3.7631,8.3616,3.4041c3.5135-0.7354,9.116-2.7217,11.6538-5.366c2.1093-2.1976,3.2817-5.4155,5.1235-7.9531
		c1.9233-2.6499-0.0193-5.7861,4.8937-5.5587c2.2722-0.2644,3.3052-2.9434,4.084-4.7087c1.8716-4.2418,2.1971-9.101,2.694-13.652
		c0.4161-3.8123-0.4095-10.0143,3.3713-12.3591c7.9376-4.9224,13.3503-12.7722,21.5872-17.2416
		c8.2638-4.4839,18.0389-5.7012,26.9092-8.6205c8.8459-2.9115,17.8179-6.3627,25.3269-11.9902
		c2.063-1.5461,3.9553-4.4417,6.4436-4.2472c0.2902,2.756,0.3799,5.3025,0.3799,8.0726
		c-3.2534,10.5022-1.9913,19.9731,2.2295,29.9484c3.7289,8.8125,8.1283,17.2863,12.1332,25.9402
		c2.6387,5.7019,5.4816,11.2052,6.0887,17.4612c0.3671,3.7823-3.7667,7.0726-6.3887,9.3511
		c-3.6422,3.1649-7.3289,6.2052-10.8988,9.4976c-4.0299,3.7167-7.9027,7.594-11.8318,11.403
		c-5.4155,2.7078-10.4912,9.6626-15.0714,13.6658c-5.6418,4.9312-12.7694,9.7644-16.5752,16.3984
		c-0.2064,0.0863-0.4476,0.3007-0.4758,0.5316c0,1.0288-2.826,2.0432-2.826,3.4191c-0.4619-0.231-6.5955,6.1259-7.2634,6.7463
		c-2.4606,2.2855-3.901,5.3486-5.712,8.1176c-4.1282,6.3115-10.3615,10.1748-15.6858,15.2727
		c-5.8221,5.5745-13.1847,3.6819-19.9349,7.9983c-3.7761,2.4147-9.5454,1.2302-13.8162,1.1605
		c-1.0724,1.4861-6.455-0.427-8.4327,0.7415c-2.356,0.6394-20.0992,3.7349-19.7809,7.4519
		c-2.0408,3.0612-4.3584,2.7095-7.9535,4.1656c-2.5989,1.0526-15.0483,10.5115-11.5425,14.0603
		c4.3743-4.5571,10.201-7.1411,16.5242-7.2445c-0.0914,1.7877-0.6414,3.7405-0.0566,5.5001c0.687,2.0673,3.464,1.6555,3.5923,3.3839
		c-6.7264,0.6858-11.4252,11.0321-13.98,16.1536c2.2559,2.1373,9.3447-6.6252,13.198-6.7694
		c-0.123,9.1956,9.2802,2.0251,10.7181,5.657c-2.9586,3.2686-7.4989,7.1488-8.1783,11.6803
		c0.3713,0.9111,15.3274-7.6443,18.3728-4.0741c2.004,1.2428,9.3252,1.8467,9.9978,0.0717
		c4.3202-2.1602,10.873-2.1018,15.5959-3.1326c5.8429-1.275,12.4106-2.1243,17.6855-5.1075
		c0.2329-0.1317,7.2035-4.2882,7.3976-5.1653c0-0.3629,2.9677-1.7665,3.4808-2.0645c3.042,0.4436,10.3556-7.6265,12.7024-9.3448
		c2.3916-1.7512,4.9397-4.5403,7.9794-5.084c3.0715-0.5493,5.6777,1.7269,8.3153,2.8671c4.728,2.0435,10.1443,3.3231,15.0486,4.3297
		c1.0443,0.381,10.1051,3.7517,11.139,1.092c1.8811-0.059,1.5332-3.3229,5.1962-1.5692c3.0375,1.4542,3.1976,5.5002,5.8413,7.3805
		c1.2502-3.9438,0.7004-8.7018-0.3855-12.6123c-3.1388-3.2755-5.0579-4.5842-6.6929-8.7201
		c-2.9562-7.4786-7.5667-11.657-15.9343-12.949c-0.2866-2.1718,4.4023-6.9105,5.3762-9.0333
		c1.9506-4.2521,1.6307-8.3833,2.7208-12.7535c1.8517-7.4238,6.4957-16.1849,11.9443-21.6335
		c-0.1953,0.2278-0.0013-0.0001,0.5819-0.684c-0.0936,0.1404,1.1648-0.9479,1.1648-1.6062c0-0.0952,1.5011-1.7341,1.6301-1.7341
		c0.3541-0.2108,5.687-3.8834,5.687-5.0712c0-1.6309,6.1012-5.4523,7.5782-6.765c1.7316-0.8658,8.7742-6.2773,9.2242-8.1754
		c2.7448-2.3083,5.5521-4.4709,8.3243-6.688c1.3711-0.0653,8.1172-6.257,8.8716-6.8375c3.0588-2.3544,6.0233-4.8503,9.3104-6.89
		c1.2267-0.7612,10.0973-4.1285,10.0973-5.5017c2.8027,1.4014,5.3031,2.9896,5.8177,6.361
		c0.1367,0.8969,1.2639,1.6038,1.9872,0.6801c1.241-1.5851,1.0758-5.5828,0.7655-7.4386c-0.7336-4.3879-4.803-7.6443-8.5378-9.5537
		c-0.7822-2.2219-4.1675-6.1528-4.1675-8.3328c-0.0657-0.2821-0.1365-0.5869-0.2021-0.8691
		c0.2427,0.4993-0.5776-2.3756-0.5776-1.7583c0-3.6224-1.4475-7.686-1.9208-11.3706c-0.3344-2.6034,2.1921-5.9788,2.7493-8.5802
		c0.7887-3.683,1.3158-7.5129,1.7041-11.2587c0.7064-6.814-0.0515-13.6934-4.5044-19.1655
		c-2.1194-2.6045-4.3756-4.1797-3.7469-7.5126c5.4489-7.2175,13.7634-11.1561,20.5635-16.8621
		c8.1156-6.8096,15.627-14.7312,22.6783-22.6208c12.6516-14.1555,23.9705-29.0269,38.4083-41.475
		c2.8164-2.4282,6.7102-4.3601,9.1682-7.1058c1.8461-2.0624,3.542-1.7378,5.6371-3.3802c7.293-5.7172,6.8138,15.4706,6.7997,18.6042
		c-3.7811,8.4447-2.6613,20.6755-3.1901,29.7556c-0.5339,9.1654-1.1163,17.3046,0.9844,26.4819
		c1.0912,4.7671,3.9102,8.7716,5.2241,13.4584c1.2247,4.3685,0.6981,8.9775,1.8719,13.2822
		c1.2028,4.411,4.9755,8.8243,7.3727,12.6771c1.979,3.1805,4.0643,8.7344,6.9595,11.0691
		c-0.1383,1.0127,3.7662,6.0891,4.0859,6.5811c2.6204,4.0313,5.608,7.8138,8.1178,11.9186
		c1.6207,9.6779,2.7184,17.6171,9.1565,25.5277c5.7639,7.082,12.1074,13.8318,19.7567,18.9063
		c6.9888,4.6362,12.5514,11.4332,18.6617,17.1918c7.1097,6.7002,13.8646,13.7777,20.2051,21.2106
		c6.8159,7.99,14.6968,15.5677,13.9661,26.7888c-1.5859,24.3517-4.5724,48.8992-16.5668,70.4344
		c-2.5841,4.6396-6.4058,8.7142-8.6436,13.4946c-2.5519,5.4514-3.9347,11.5507-5.7762,17.2668
		c-1.6744,5.1974-3.4736,10.3666-5.7461,15.3372c-1.3047,2.854-2.7653,5.6387-4.4254,8.3027
		c-1.8363,2.9467-3.608,1.4578-6.1927,3.309c-2.9645,2.1232-4.3728,7.6356-6.8304,10.4858
		c-3.1946,3.7047-7.2141,4.7759-11.2852,7.114c-3.8701,2.2229-6.9814,5.5266-9.4139,9.2352
		c-0.2822,0.4302-2.7009,3.4916-2.3496,4.2372c-0.2578,1.1416-0.298,2.2908-0.1204,3.4474
		c-1.0479,0.5417-1.9741,1.2433-2.7789,2.1045c-3.007,3.2266-3.8253,8.1301-3.9579,12.3706
		c-0.1481,4.7347,0.6163,7.7123,3.8171,2.978c0.8951-1.324,1.451-2.8639,2.511-4.0801c2.3384-2.6831,4.1038-0.3774,6.9589-0.9438
		c5.8427-1.1593,10.8781-4.7316,16.7391-5.7832c-0.8048,2.3113-4.7252,22.1323-0.7527,19.376
		c2.3243-0.9095,2.7148-5.4122,4.8792-6.8931c3.4155,2.7288,10.0962,0.3479,13.2814-1.656
		c3.9617-2.4923,7.5227-7.2119,10.8579-10.5175c3.9934-3.9579,3.8077-2.0741,5.203,1.4882
		c1.4351,3.6639,1.0649,7.8204,2.2441,11.7112c1.5892,5.2406,4.4487-4.1786,6.6835-4.2676
		c1.3083,1.9092,7.5428-1.5135,9.2379-2.6299c1.1357,0.0303,4.6473-4.0015,5.2168-4.8032c4.2977-1.469,8.1134-4.0532,9.6846-8.4999
		c2.6227-5.0366,5.7994-10.2136,7.3549-15.8915c0.7986-2.9152,2.7203-2.709,5.4122-2.694c1.3059,0.0074,1.4646-1.1006,2.7601-0.3494
		c1.1444,0.6637,1.4119,4.212,3.3436,3.1786c2.2874-1.2238,3.6465-7.9478,4.2006-10.3141c0.5145-2.1976,0.4352-7.9703-1.2665-9.8354
		c0.7551-1.3219-1.0192-3.895-1.7405-4.9912c-2.2299-3.3884-8.4517-5.5908-8.4633-9.0502
		c-0.0159-4.766,1.0662-9.4895,1.1975-14.2581c0.067-2.4362,0.3385-9.3958-1.7552-11.0752
		c-2.626-8.6899-0.9149-17.0233-0.7855-26.0997c0.1436-10.0645,3.5045-18.4067,7.2595-27.7006
		c3.0325-7.5056,5.4049-15.241,7.908-22.926c1.5514-4.7628,3.1013-9.526,4.6417-14.2924c1.0537-3.2606-0.2882-4.9888,3.3862-2.8835
		c0.9963,0.7848,3.7058,7.1843,6.0153,4.9384c3.1851-3.0977,0.7906-10.572-1.3496-13.4935
		c-2.1494-2.9341-5.3943-4.1156-8.0885-6.402c-2.6068-2.212-4.6729-5.1799-6.9148-7.6904
		c-5.0767-5.6849-9.7755-11.6976-14.3285-17.8533c-7.7239-10.4426-12.4932-21.1311-18.7163-32.3025
		c-7.5281-13.5138-17.4729-24.1633-29.9253-33.2241c-5.4922-3.9961-11.2177-7.5664-12.3341-14.8245
		c-1.2444-8.0912,3.343-15.3265,3.1956-23.1832c-0.2411-3.5265,1.7887-7.8013,1.631-11.7286
		c2.5077-5.8441,2.5516-12.3492,4.9983-18.1252c5.155-12.1699,6.7871-25.4103,7.2904-38.5161
		c-0.3859,0.072-0.7719,0.144-1.1577,0.2161c2.9803-0.2611,3.2191-25.2982,4.0643-29.2043c1.2695-5.8673,4.7953-2.6127,8.9186-0.774
		c5.5769,2.4869,11.1567,4.9677,16.7274,7.4684c20.2968,9.1115,40.6156,18.1791,61.2706,26.4569
		c33.3486,13.365,68.0022,25.0333,102.7981,32.5881c35.5647,7.7216,70.7374,16.5166,107.5173,14.8081
		c36.8477-1.7115,70.6163-13.0354,104.6215-25.9824c14.6522-5.5785,29.1995-11.2157,43.8203-16.8347
		c4.1587-1.5983,8.3129-3.2083,12.4666-4.8196c3.1635-1.2272,9.118-2.2517,11.6725-4.3411
		C1927.8754,1169.0071,1927.2223,1155.9016,1921.6271,1157.4066C1913.0452,1159.7157,1922.4612,1157.1823,1921.6271,1157.4066z
		 M855.5706,766.1425c0.3377-0.0009,0.6754-0.0016,1.0131-0.0025C859.6971,765.1224,853.4785,767.4515,855.5706,766.1425
		C855.9095,766.1476,855.1586,766.4003,855.5706,766.1425z M784.3552,1151.3175
		C784.3928,1151.4081,784.3107,1151.4166,784.3552,1151.3175C784.3631,1151.3365,784.345,1151.3401,784.3552,1151.3175z
		 M728.479,796.0583C728.5814,796.0653,728.4825,796.0889,728.479,796.0583C728.506,796.0602,728.4797,796.0648,728.479,796.0583z
		 M832.7354,780.3196c3.5092-0.2147,6.5747-2.0098,9.6932-3.439c-0.3944,1.8507-2.802,15.9392-7.0859,11.907
		C833.8827,787.4135,834.2365,780.8086,832.7354,780.3196C836.3019,780.1014,832.7247,780.3162,832.7354,780.3196z
		 M1405.163,646.3796c-0.001,0.0009-0.0018,0.0019-0.0028,0.0028L1405.163,646.3796z M1405.145,646.3976
		C1405.2494,646.5057,1404.5416,645.7723,1405.145,646.3976C1405.145,646.3976,1405.0813,646.3315,1405.145,646.3976z
		 M1371.8483,699.1415C1371.639,699.0616,1371.8213,698.9559,1371.8483,699.1415
		C1371.7827,699.1165,1371.8424,699.1012,1371.8483,699.1415z M1351.0638,735.5796
		C1351.063,735.5796,1351.0642,735.5797,1351.0638,735.5796C1351.0637,735.5796,1351.0638,735.5796,1351.0638,735.5796z
		 M1333.5452,766.4057C1333.545,766.4057,1333.5455,766.4056,1333.5452,766.4057L1333.5452,766.4057z M1332.0028,769.026
		C1332.0011,769.0263,1331.8574,768.2709,1332.0028,769.026C1332,769.0266,1331.9844,768.9302,1332.0028,769.026z
		 M1818.4954,465.5508C1818.6257,465.5348,1818.5039,465.5676,1818.4954,465.5508
		C1818.4894,465.5515,1818.5046,465.5691,1818.4954,465.5508z M1486.8706,964.7961
		C1486.8345,964.7321,1486.9354,964.6497,1486.8706,964.7961C1486.8612,964.7795,1486.8823,964.7697,1486.8706,964.7961z
		 M1489.5255,964.8746C1489.036,964.4358,1489.5192,964.7997,1489.5255,964.8746
		C1489.4583,964.8143,1489.5161,964.7628,1489.5255,964.8746z M1452.7644,1041.3026
		C1452.4529,1041.2448,1452.7644,1041.168,1452.7644,1041.3026C1452.7253,1041.2953,1452.7644,1041.3014,1452.7644,1041.3026z
		 M1544.0605,1097.4878C1544.8557,1096.704,1543.973,1097.6223,1544.0605,1097.4878
		C1544.1509,1097.3988,1544.0571,1097.493,1544.0605,1097.4878z M1544.3256,1097.2142
		C1544.1018,1097.3126,1544.2743,1097.0859,1544.3256,1097.2142C1544.2913,1097.2292,1544.3157,1097.1895,1544.3256,1097.2142z
		 M1221.7981,1281.3771C1221.8557,1281.3365,1221.9152,1281.4667,1221.7981,1281.3771
		C1221.8086,1281.3696,1221.8135,1281.3888,1221.7981,1281.3771z M955.8967,1143.1428
		C955.8004,1142.988,956.0764,1142.9628,955.8967,1143.1428C955.8772,1143.1115,955.929,1143.1105,955.8967,1143.1428z
		 M1160.1672,464.7126C1160.1755,464.7073,1160.1766,464.7066,1160.1672,464.7126L1160.1672,464.7126z M1180.165,211.3884
		c-0.2479,0.2257-0.496,0.4513-0.7439,0.677C1179.4403,211.4246,1179.6884,211.1989,1180.165,211.3884
		C1180.0933,211.8363,1180.0298,211.3765,1180.165,211.3884z M1389.3289,564.6938
		C1389.327,564.6815,1389.3334,564.6768,1389.3289,564.6938L1389.3289,564.6938z M1325.1898,775.5095
		c0.0214-0.0394,0.0499-0.0742,0.0748-0.1113C1325.2793,775.436,1325.2537,775.4729,1325.1898,775.5095z M1878.5244,52.2192
		C1878.5461,52.2211,1878.4895,52.2615,1878.5244,52.2192C1878.5272,52.2195,1878.5198,52.2249,1878.5244,52.2192z
		 M1885.1621,43.0513C1885.175,43.1108,1885.1313,43.0777,1885.1621,43.0513C1885.1646,43.0625,1885.1552,43.0573,1885.1621,43.0513
		z M1885.2502,43.4543C1885.2358,43.3911,1884.9427,44.0569,1885.2502,43.4543
		C1885.2515,43.4597,1885.2201,43.5134,1885.2502,43.4543z M1885.3055,43.2219
		C1885.113,42.9919,1885.2305,42.8817,1885.3055,43.2219C1885.2968,43.2114,1885.2867,43.1367,1885.3055,43.2219z
		 M1397.6636,985.5513C1397.6932,985.5386,1397.6797,985.5747,1397.6636,985.5513
		C1397.6694,985.5488,1397.667,985.5563,1397.6636,985.5513z M1398.0105,985.5072
		C1397.7599,985.2993,1397.8,985.333,1398.0105,985.5072C1398.0952,985.5775,1397.9697,985.4734,1398.0105,985.5072z
		 M1397.6605,985.535C1397.6605,985.5491,1397.6421,985.58,1397.6605,985.535
		C1397.6605,985.5392,1397.6575,985.5425,1397.6605,985.535z M1398.6775,987.79c0.2057-1.2549-0.707,0.2529,0.8749-0.2314
		c-2.6326,4.54-3.1106,10.9853-4.1956,16.0662c-1.2111,5.6707-4.0579,13.9727-2.7941,19.7319
		c-0.9128,0.6094-0.6654-5.9808-0.7361-6.9952c-0.2906-4.1766-0.9989-8.3126-1.8413-12.4094
		c-2.2007,3.6767-4.4357,7.35-6.2698,11.2285c-0.9878,2.089-1.6141,6.8467-4.3684,7.1425
		c-1.1068-0.3172-2.2137-0.6344-3.3206-0.9515c0.2324-2.509,0.7332-4.9818,1.2511-7.4438c0.8665-4.1189,1.7842-8.28,1.6141-12.5179
		c-2.2341,3.8343-8.0475,18.183-11.8235,18.2011c0.3337-5.8508,1.3573-11.6528,1.3656-17.5236
		c0.0076-5.3518,5.0261-2.0295,6.8087-6.1226c0.1482-0.3401,4.8544-1.4313,5.7168-1.595c1.54-0.2924,2.908-1.3074,3.3358-2.2473
		c1.7085,1.5225,9.594-2.8418,9.3777-3.1497C1395.5001,989.3879,1397.3781,989.7034,1398.6775,987.79
		C1398.7129,987.574,1397.718,989.2028,1398.6775,987.79z M1116.1736,1222.9895
		C1115.8053,1223.8446,1115.2905,1222.8149,1116.1736,1222.9895C1116.1075,1223.1428,1116.0054,1222.9563,1116.1736,1222.9895z
		 M674.2802,870.6503c-0.9658-4.5706-1.7755-9.9219-3.4094-14.2688c1.6103-0.0076,5.3224,6.4246,6.6559,5.5029
		c0.5671-0.392-0.0853-3.8285,0.2304-4.5065c1.1582-2.488,4.5817-5.1908,6.4419-3.3831c1.1275,10.4501,8.6052-4.9691,9.248-4.3263
		c0.625-0.625,5.62,7.8165,6.8425,6.594c3.9479,3.7953,2.6785-2.5878,2.1302-4.2877c-0.9406-2.9166-1.7035-6.0579,2.556-5.3478
		c0.1082,0,3.7524,5.1494,4.1042,5.5478c1.6575-2.4153,0.2568-6.662,3.423-7.6805c0.5242-0.1686,2.602-1.6546,3.373-1.2691
		c-0.0408,0.0204,3.4235,4.3224,3.9691,4.6076c1.0851-2.1026,2.3692-3.9876,2.9442-6.3197
		c1.1161-1.1161,3.2297,0.6556,3.2964,1.6639c-1.1987,3.66-2.5339,7.2821-4.1826,10.7658
		c-3.9435,8.333-6.2635,9.3408-15.0519,7.6377c-5.6826-1.1013-11.5526-4.4875-17.5939-3.3876
		c-6.6521,1.2112-11.9592,7.8427-14.6136,13.7079C674.5226,871.484,674.4014,871.0672,674.2802,870.6503
		C674.1773,870.1636,674.3945,871.0673,674.2802,870.6503z M1007.7598,833.0512
		C1007.7634,833.1762,1007.5449,833.061,1007.7598,833.0512C1007.7608,833.0874,1007.7264,833.0527,1007.7598,833.0512z
		 M1169.2291,1154.8606C1169.1693,1154.6887,1169.403,1154.6527,1169.2291,1154.8606
		C1169.2152,1154.8206,1169.2627,1154.8204,1169.2291,1154.8606z M752.6432,789.7092
		C752.6758,789.7236,752.6467,789.7756,752.6432,789.7092C752.6508,789.7125,752.6438,789.7208,752.6432,789.7092z
		 M716.5242,835.7447c0.2401-0.2192,0.4801-0.4384,0.7202-0.6576C717.4161,835.9547,717.176,836.1739,716.5242,835.7447
		C716.7756,835.5255,716.7317,835.824,716.5242,835.7447z M739.2812,836.506c0.0197-0.1399,0.2186-0.0654,0.3359,0.0214
		C739.502,836.52,739.3947,836.5132,739.2812,836.506z M739.6278,836.5358C739.6932,836.587,739.5873,836.8666,739.6278,836.5358
		C739.6942,836.5878,739.6213,836.5891,739.6278,836.5358z M776.021,858.093C776.0881,858.1613,776.0223,858.1717,776.021,858.093
		C776.0353,858.1075,776.0213,858.1116,776.021,858.093z M766.8788,805.556C766.6534,805.2457,767.0253,805.5546,766.8788,805.556
		C766.8537,805.5214,766.8914,805.5558,766.8788,805.556z M769.3232,807.2247c-0.2342-0.1591,5.8541,5.8793,0.8397,0.8265
		c-0.0038-0.0024-0.0032,0.0009,0.0018,0.0101C769.8842,807.7825,769.6037,807.5036,769.3232,807.2247
		C769.3185,807.2215,769.6065,807.5015,769.3232,807.2247z M741.8268,803.0491
		C741.4655,803.6304,741.5759,803.0491,741.8268,803.0491C741.7627,803.1523,741.8268,803.0491,741.8268,803.0491z
		 M680.0743,890.6357C679.9482,890.6296,680.0372,890.5519,680.0743,890.6357
		C680.0503,890.6345,680.0664,890.6178,680.0743,890.6357z M686.8876,884.8511c-0.0485,0.317-2.0214-0.7906-2.1918-0.7476
		c-2.5081,0.6335-1.7352-0.5635-2.3808-2.8007c2.7974-1.4525,4.8689-3.8237,7.4967-4.9904
		c3.4718-1.5414,6.4926-3.7098,10.3505-4.4045c0.0349,1.4213-3.4902,8.4697-4.9922,6.2969
		c-2.7809-1.9933-8.1288-1.1008-6.2328,3.7354C685.4488,880.0003,687.358,884.0727,686.8876,884.8511
		C686.8909,884.8295,686.8963,884.8367,686.8876,884.8511z M706.4658,887.9697
		C706.5989,887.5258,706.5279,887.9861,706.4658,887.9697C706.4839,887.9091,706.4761,887.9725,706.4658,887.9697z
		 M699.5336,884.1716C699.4828,884.1174,699.927,884.07,699.5336,884.1716C699.5189,884.1559,699.5336,884.1716,699.5336,884.1716z
		 M705.1728,877.3745C705.1714,877.1158,705.5811,877.2,705.1728,877.3745C705.1725,877.3182,705.2457,877.3433,705.1728,877.3745z
		 M696.0764,893.1357C696.0713,893.1827,696.11,893.133,696.0764,893.1357C696.076,893.1396,696.0727,893.136,696.0764,893.1357z
		 M670.1606,849.7159C670.1689,849.6921,670.2076,849.6837,670.1606,849.7159
		C670.1608,849.7159,670.1608,849.7159,670.1606,849.7159L670.1606,849.7159z M777.6619,865.5508
		C777.418,866.2913,777.6619,865.2607,777.6619,865.5508C777.6351,865.6322,777.6619,865.5508,777.6619,865.5508z
		 M1693.6519,1174.8945C1693.3445,1175.0066,1693.455,1174.5391,1693.6519,1174.8945
		C1693.601,1174.9131,1693.6008,1174.8024,1693.6519,1174.8945z M1690.6819,1181.6068c0.597-0.0966,0.9915,0.0468,1.1833,0.4299
		C1691.4708,1181.8934,1691.0763,1181.7501,1690.6819,1181.6068C1691.1469,1181.4799,1691.0776,1181.7468,1690.6819,1181.6068z
		 M1050.968,1020.545C1050.7719,1020.5536,1051.0415,1020.4752,1050.968,1020.545
		C1050.947,1020.546,1050.9717,1020.5416,1050.968,1020.545z M1433.4955,1209.7174
		C1433.4955,1209.3698,1433.4519,1209.7692,1433.4955,1209.7174C1433.4955,1209.7303,1433.5171,1209.6918,1433.4955,1209.7174z
		 M1285.9697,1166.3568C1285.5521,1166.2166,1285.7897,1165.9041,1285.9697,1166.3568
		C1285.8745,1166.3248,1285.927,1166.2494,1285.9697,1166.3568z M1425.9955,1238.1221
		C1425.8611,1238.0769,1425.9955,1238.0066,1425.9955,1238.1221C1425.969,1238.1132,1425.9955,1238.0984,1425.9955,1238.1221z
		 M1077.5366,1090.1428C1077.5898,1090.2009,1077.3273,1089.9137,1077.5366,1090.1428
		C1077.85,1090.4849,1077.4935,1090.0956,1077.5366,1090.1428z M1235.0554,808.1662
		C1235.3036,807.8796,1235.1189,808.2829,1235.0554,808.1662C1235.0902,808.126,1235.0659,808.1855,1235.0554,808.1662z
		 M1245.1879,1101.7401C1245.1912,1101.0945,1246.1584,1101.1177,1245.1879,1101.7401
		C1245.1885,1101.6183,1245.3757,1101.6196,1245.1879,1101.7401z M1263.4736,1011.4629
		C1263.6123,1011.3159,1263.509,1011.5262,1263.4736,1011.4629C1263.491,1011.4445,1263.4795,1011.4734,1263.4736,1011.4629z
		 M1251.7347,988.2476C1251.7045,988.1256,1252.1199,987.8151,1251.7347,988.2476
		C1251.7268,988.2156,1251.7938,988.1812,1251.7347,988.2476z M1236.8208,996.3737
		C1236.8208,996.4269,1236.6918,996.3663,1236.8208,996.3737C1236.8208,996.3736,1236.8025,996.3726,1236.8208,996.3737z
		 M1285.0925,1028.9774C1284.6752,1028.3927,1285.1484,1028.8965,1285.0925,1028.9774
		C1285.0344,1028.896,1285.1135,1028.947,1285.0925,1028.9774z M1221.6833,971.6732
		C1221.6646,971.3301,1221.9022,971.2051,1221.6833,971.6732C1221.6787,971.5886,1221.7294,971.5748,1221.6833,971.6732z
		 M1197.7466,1076.2908C1197.8595,1076.2935,1197.8025,1076.4225,1197.7466,1076.2908
		C1197.7717,1076.2914,1197.7571,1076.3154,1197.7466,1076.2908z M1219.3287,1126.3842
		C1219.3323,1126.3846,1219.328,1126.3849,1219.3287,1126.3842C1219.3287,1126.3842,1219.3286,1126.3843,1219.3287,1126.3842z
		 M1219.347,1126.2834C1219.4337,1126.4271,1219.3173,1126.4225,1219.347,1126.2834
		C1219.3656,1126.3142,1219.3394,1126.3195,1219.347,1126.2834z M1222.6642,1124.7206
		C1223.8076,1123.7195,1222.6642,1124.9609,1222.6642,1124.7206C1222.8074,1124.5952,1222.6642,1124.7207,1222.6642,1124.7206z
		 M1171.4282,1049.457c0.2946-0.9155,0.7413-0.6429,1.3403,0.818C1172.3883,1049.9142,1171.9415,1049.6415,1171.4282,1049.457
		C1171.502,1049.3082,1171.8595,1049.5697,1171.4282,1049.457z M1216.8265,1129.7144
		C1217.1151,1129.6182,1217.1398,1129.766,1216.8265,1129.7144C1216.8262,1129.7145,1216.9087,1129.7279,1216.8265,1129.7144z
		 M1089.5294,1011.232c0.0145-0.0215,0.0369-0.0374,0.0648-0.0491C1089.575,1011.1995,1089.5503,1011.2155,1089.5294,1011.232z
		 M1073.6552,976.2235C1073.7852,976.1901,1073.5072,976.3774,1073.6552,976.2235
		C1073.6597,976.2224,1073.6428,976.2363,1073.6552,976.2235z M1245.1558,1123.0419
		C1245.1558,1123.0847,1245.1558,1123.0251,1245.1558,1123.0419C1245.1558,1123.042,1245.1558,1123.042,1245.1558,1123.0419z
		 M1386.8289,1041.3842C1386.9905,1041.3842,1386.908,1041.4309,1386.8289,1041.3842
		C1386.8611,1041.3842,1386.8503,1041.3969,1386.8289,1041.3842z M1418.4744,1243.0858
		C1418.4482,1243.0731,1418.4751,1243.0892,1418.4744,1243.0858C1418.4651,1243.0813,1418.4763,1243.0953,1418.4744,1243.0858z
		 M1327.0811,924.7938C1327.1322,924.6532,1327.1869,924.7416,1327.0811,924.7938
		C1327.0925,924.7622,1327.1067,924.7811,1327.0811,924.7938z M1090.1526,1019.7188
		C1090.178,1019.701,1090.1563,1019.718,1090.1526,1019.7188C1090.156,1019.7164,1090.1534,1019.7186,1090.1526,1019.7188z
		 M1213.5024,1137.016C1214.2882,1137.3477,1213.5339,1137.5457,1213.5024,1137.016
		C1213.6479,1137.0774,1213.5095,1137.1353,1213.5024,1137.016z M1443.5,556.4745
		C1443.4884,556.2917,1443.7433,556.4301,1443.5,556.4745C1443.498,556.4438,1443.5428,556.4667,1443.5,556.4745z
		 M1703.5505,298.4482C1703.4564,297.9711,1703.7716,297.8026,1703.5505,298.4482
		C1703.5261,298.3245,1703.5935,298.3228,1703.5505,298.4482z M1588.4629,526.3871
		C1588.2983,526.3981,1588.6072,526.2814,1588.4629,526.3871C1588.4464,526.3882,1588.4734,526.3794,1588.4629,526.3871z
		 M1604.3378,303.0576C1604.5361,303.0844,1604.3401,303.0776,1604.3378,303.0576
		C1604.373,303.0624,1604.3362,303.0442,1604.3378,303.0576z M1571.0017,334.7288
		C1571.3829,334.0359,1571.2452,334.6889,1571.0017,334.7288C1571.0632,334.6169,1571.0017,334.7288,1571.0017,334.7288z
		 M1584.3156,504.7253C1584.3114,504.7313,1584.3068,504.7253,1584.3156,504.7253
		C1584.3147,504.7266,1584.3137,504.7253,1584.3156,504.7253z M1528.2419,395.6782
		C1528.2734,395.9299,1527.7008,396.0662,1528.2419,395.6782C1528.2493,395.7367,1528.1505,395.7438,1528.2419,395.6782z
		 M1557.0308,433.7106c-0.03-0.4204,0.3542-0.68,0.6521-0.8556C1557.4655,433.1402,1557.2482,433.4254,1557.0308,433.7106
		C1557.0303,433.7037,1557.2458,433.4229,1557.0308,433.7106z M1600.3376,309.7305
		C1600.1654,309.6127,1600.3608,309.2964,1600.3376,309.7305C1600.2952,309.7014,1600.3419,309.6504,1600.3376,309.7305z
		 M1591.8289,294.7104C1591.8289,294.7542,1591.8177,294.722,1591.8289,294.7104
		C1591.8289,294.7129,1591.8258,294.7136,1591.8289,294.7104z M1540.1814,496.0491c0.3137,0.6398,0.2495,0.9161-0.1925,0.8289
		C1540.0531,496.6017,1540.1172,496.3253,1540.1814,496.0491C1540.2108,496.3212,1540.063,496.2878,1540.1814,496.0491z
		 M1606.7981,293.0326C1606.8087,292.8625,1606.9078,293.005,1606.7981,293.0326
		C1606.8003,292.9976,1606.8195,293.0272,1606.7981,293.0326z M1643.4985,286.381
		C1644.436,285.4618,1643.7737,286.3819,1643.4985,286.381C1643.4985,286.381,1643.6128,286.3813,1643.4985,286.381z
		 M1529.3469,371.3826C1529.3207,371.3826,1529.3319,371.3252,1529.3469,371.3826
		C1529.3409,371.3826,1529.3442,371.3723,1529.3469,371.3826z M1518.561,509.8115
		C1518.4313,509.6472,1518.6902,509.6533,1518.561,509.8115C1518.5367,509.7808,1518.5854,509.7816,1518.561,509.8115z
		 M1663.4955,294.7167C1663.533,294.6594,1663.5771,294.7167,1663.4955,294.7167
		C1663.5045,294.7029,1663.5117,294.7167,1663.4955,294.7167z M1505.1841,384.5264
		C1505.132,384.5795,1505.1018,384.4517,1505.1841,384.5264C1505.1721,384.5386,1505.1709,384.5144,1505.1841,384.5264z
		 M1742.6589,227.3303c-0.1597,0.1351-0.3079,0.2747-0.4521,0.4163C1742.3141,227.5483,1742.4688,227.4147,1742.6589,227.3303z
		 M1511.6033,378.0317C1511.5634,378.116,1511.5017,378.0218,1511.6033,378.0317
		C1511.5946,378.05,1511.5833,378.0298,1511.6033,378.0317z M1470.1653,709.7142
		C1470.2349,709.769,1470.1653,709.7708,1470.1653,709.7142C1470.1794,709.7254,1470.1653,709.7142,1470.1653,709.7142z
		 M1605.1554,524.7252C1605.1515,524.7162,1605.1593,524.7112,1605.1554,524.7252
		C1605.1542,524.7224,1605.1563,524.7222,1605.1554,524.7252z M1601.8096,524.666
		C1601.8218,524.6599,1601.823,524.6599,1601.8096,524.666C1601.8127,524.6644,1601.8127,524.6646,1601.8096,524.666z
		 M1488.5898,376.5499C1488.4097,376.3946,1488.652,376.0989,1488.5898,376.5499
		C1488.5481,376.5139,1488.6014,376.4657,1488.5898,376.5499z M1599.7845,528.0476
		C1599.7611,527.9612,1599.8353,527.9896,1599.7845,528.0476C1599.7798,528.03,1599.7957,528.0349,1599.7845,528.0476z
		 M1605.2697,524.7377C1605.0688,524.6967,1605.2427,524.627,1605.2697,524.7377
		C1605.2338,524.7303,1605.2637,524.7131,1605.2697,524.7377z M1770.1661,263.1421
		C1770.1576,262.8779,1770.5251,262.786,1770.1661,263.1421C1770.1652,263.1118,1770.2412,263.0676,1770.1661,263.1421z
		 M1813.0723,165.9868c0.0942-0.1187,0.2113-0.2297,0.3533-0.3325C1813.309,165.7671,1813.1914,165.8777,1813.0723,165.9868z
		 M1555.8379,257.8997C1556.0334,257.4622,1556.1263,257.8719,1555.8379,257.8997
		C1555.875,257.8167,1555.8987,257.8938,1555.8379,257.8997z M1709.9868,463.9458c-0.4414,0.1028-0.8845,0.2018-1.3285,0.2997
		C1709.0649,463.9518,1709.5176,463.8767,1709.9868,463.9458z M1582.5227,221.7539c0.8142-1.0332,1.755-1.9331,2.7742-2.7197
		C1584.3322,219.9103,1583.4115,220.8191,1582.5227,221.7539z M1465.1621,734.7173
		C1465.1095,734.633,1465.1621,734.5895,1465.1621,734.7173C1465.1487,734.6958,1465.1621,734.6895,1465.1621,734.7173z
		 M1092.6553,1019.8468C1092.6777,1019.8739,1092.6198,1019.9464,1092.6553,1019.8468
		C1092.6606,1019.8533,1092.65,1019.8615,1092.6553,1019.8468z M1094.3311,1100.554
		C1094.3402,1100.5691,1094.3171,1100.5862,1094.3311,1100.554C1094.3311,1100.554,1094.3276,1100.5619,1094.3311,1100.554z
		 M1122.4102,1075.2296c0.0909-0.3335,0.182-0.667,0.2729-1.0005C1123.1372,1074.6154,1123.0463,1074.9489,1122.4102,1075.2296
		C1122.4551,1074.9105,1122.5679,1074.9905,1122.4102,1075.2296z M1383.4955,1154.5145
		C1384.2101,1154.5477,1383.4955,1154.8679,1383.4955,1154.5145C1383.6096,1154.5198,1383.4955,1154.5822,1383.4955,1154.5145z
		 M1728.4955,578.0524C1728.5128,578.0605,1728.4955,578.0622,1728.4955,578.0524
		C1728.4955,578.0524,1728.4955,578.0555,1728.4955,578.0524z M1742.6832,408.0222c0.9078-0.0348,1.8131-0.0988,2.7155-0.1646
		C1744.6755,408.3853,1743.6653,408.3503,1742.6832,408.0222z M1734.3264,286.3826
		C1734.3993,286.2915,1734.4912,286.3863,1734.3264,286.3826C1734.3459,286.3582,1734.3585,286.3833,1734.3264,286.3826z
		 M1781.8289,74.6632C1781.5879,74.873,1781.8289,74.6013,1781.8289,74.6632C1781.8015,74.687,1781.8289,74.6542,1781.8289,74.6632z
		 M1330.3145,499.7219C1330.3175,499.8784,1329.9673,499.7138,1330.3145,499.7219
		C1330.3152,499.7601,1330.262,499.7207,1330.3145,499.7219z M1293.4954,509.7036
		C1293.4954,509.7208,1293.4318,509.7672,1293.4954,509.7036C1293.4954,509.7075,1293.4858,509.7131,1293.4954,509.7036z
		 M1258.493,503.0833C1258.4897,503.0721,1258.4982,503.0697,1258.493,503.0833
		C1258.4922,503.0803,1258.4941,503.0803,1258.493,503.0833z M1244.4771,715.9714
		C1245.4087,715.6005,1244.5232,716.2751,1244.4771,715.9714C1244.6084,715.9191,1244.485,716.0236,1244.4771,715.9714z
		 M1195.1656,335.55C1195.1656,335.5207,1195.2281,335.5367,1195.1656,335.55
		C1195.1656,335.5502,1195.1765,335.5477,1195.1656,335.55z M1193.9099,346.1133
		C1193.3811,346.6859,1193.298,346.1169,1193.9099,346.1133C1193.8069,346.2249,1193.7869,346.114,1193.9099,346.1133z
		 M1260.5295,756.6489c1.0149,0.1964,0.9342,0.5353-0.2422,1.0166C1260.368,757.3267,1260.4489,756.9878,1260.5295,756.6489
		C1260.824,756.6955,1260.4226,756.9862,1260.5295,756.6489z M1251.8287,763.8846
		C1252.0841,764.048,1251.8282,764.0669,1251.8287,763.8846C1251.8784,763.9164,1251.8286,763.9283,1251.8287,763.8846z
		 M1335.1621,518.0475C1335.2134,517.9153,1335.3633,518.0159,1335.1621,518.0475
		C1335.1746,518.0154,1335.2034,518.041,1335.1621,518.0475z M1016.8535,878.4727c0.3711,0.3553,0.7399,0.7125,1.1072,1.071
		C1017.5204,879.3897,1017.1459,878.9064,1016.8535,878.4727z M1128.0472,1074.5549
		C1128.105,1074.4917,1128.0989,1074.5732,1128.0472,1074.5549C1128.058,1074.5432,1128.0581,1074.5588,1128.0472,1074.5549z
		 M1196.8318,1148.0508C1196.8082,1148.0637,1196.807,1148.0508,1196.8318,1148.0508
		C1196.8318,1148.0508,1196.8253,1148.0508,1196.8318,1148.0508z M1366.8273,1131.4677c0-0.0278-0.0001-0.0557-0.0001-0.0835l0,0
		C1366.9177,1131.4014,1366.9177,1131.4292,1366.8273,1131.4677C1366.8271,1131.4398,1366.8483,1131.4495,1366.8273,1131.4677z
		 M1455.1621,819.7174C1455.186,819.5903,1455.2004,819.6707,1455.1621,819.7174L1455.1621,819.7174z M1496.0085,793.0274
		C1495.993,793.0622,1495.9563,793.0645,1496.0085,793.0274C1496.0042,793.0372,1495.9984,793.0346,1496.0085,793.0274z
		 M1582.4167,864.1827c0.252,0.158,0.5045,0.3154,0.7593,0.4697C1582.8823,864.5544,1582.6262,864.4027,1582.4167,864.1827z
		 M1251.7368,768.1693C1251.8711,767.9978,1252.1593,768.168,1251.7368,768.1693
		C1251.7678,768.1297,1251.8159,768.1691,1251.7368,768.1693z M1186.833,242.8323
		C1186.8408,243.2889,1186.6533,242.8572,1186.833,242.8323C1186.8342,242.9033,1186.7979,242.8372,1186.833,242.8323z
		 M1238.566,794.6707C1238.4237,794.7529,1238.5087,794.6442,1238.566,794.6707
		C1238.5408,794.6853,1238.5496,794.6631,1238.566,794.6707z M1225.1589,824.7159
		C1225.1439,824.8574,1225.151,824.7339,1225.1589,824.7159C1225.1565,824.739,1225.1589,824.7159,1225.1589,824.7159z
		 M1183.1904,1168.4875c-0.0754,0.548-0.6219,0.9569-1.2544,1.1116C1182.3578,1169.2343,1182.7754,1168.8629,1183.1904,1168.4875z
		 M1304.3303,1153.0508C1304.2734,1153.3237,1304.5422,1152.839,1304.3303,1153.0508
		C1304.3309,1153.0479,1304.3302,1153.0509,1304.3303,1153.0508z M1489.9504,1372.8813
		C1490.0305,1372.8368,1490.0488,1372.9342,1489.9504,1372.8813C1489.9697,1372.8706,1489.9705,1372.8921,1489.9504,1372.8813z
		 M1471.8289,1326.3842C1471.9855,1326.3842,1472.0316,1326.7997,1471.8289,1326.3842
		C1471.8639,1326.3842,1471.8613,1326.4507,1471.8289,1326.3842z M1365.1526,904.7095
		C1365.4099,904.7986,1365.199,904.6909,1365.1526,904.7095C1365.1526,904.7095,1365.1458,904.7122,1365.1526,904.7095z
		 M1360.1331,908.0019C1360.1769,908.0424,1360.1299,908.0092,1360.1331,908.0019
		C1360.1396,908.008,1360.1323,908.0036,1360.1331,908.0019z M1829.4812,46.3694
		C1829.443,46.3697,1829.2712,46.0709,1829.4812,46.3694C1829.4675,46.3695,1829.4517,46.3274,1829.4812,46.3694z
		 M1196.8467,196.397C1196.4669,196.1536,1196.9106,195.6674,1196.8467,196.397
		C1196.7661,196.3453,1196.8588,196.2592,1196.8467,196.397z M1305.7753,1151.509
		C1305.7933,1151.509,1305.9299,1151.3979,1305.7753,1151.509C1305.7751,1151.509,1305.7959,1151.4943,1305.7753,1151.509z
		 M1445.2937,1509.5588C1445.6849,1510.0055,1445.0767,1509.8315,1445.2937,1509.5588
		C1445.3601,1509.6346,1445.2501,1509.6135,1445.2937,1509.5588z M1430.1526,504.7109
		C1430.1648,504.6962,1430.1526,504.7228,1430.1526,504.7109C1430.1538,504.7095,1430.1526,504.7112,1430.1526,504.7109z
		 M1263.5234,318.7316C1263.5662,317.2021,1263.9857,318.7121,1263.5234,318.7316
		C1263.5298,318.5042,1263.741,318.7224,1263.5234,318.7316z M1180.9807,216.3931
		C1180.9624,216.3936,1180.9883,216.4097,1180.9807,216.3931C1180.9722,216.3933,1180.9807,216.3931,1180.9807,216.3931z
		 M1150.1636,927.2208C1150.2073,927.3209,1150.014,927.3425,1150.1636,927.2208
		C1150.1735,927.2434,1150.1387,927.241,1150.1636,927.2208z M1029.0891,966.2137
		C1029.0308,966.666,1028.7802,966.2027,1029.0891,966.2137C1029.0792,966.2903,1029.0276,966.2115,1029.0891,966.2137z
		 M813.0067,1145.8964c-0.1884,0.4956-0.3151,0.1699-0.38-0.9771C813.0795,1145.1085,813.2062,1145.4342,813.0067,1145.8964z
		 M1209.4865,1214.6373c-0.3478-0.1085-0.6107-0.3379-0.7777-0.6765C1208.9705,1214.1835,1209.2283,1214.4106,1209.4865,1214.6373z
		 M1211.8286,1333.8842C1211.9337,1333.8315,1210.8368,1334.5682,1211.8286,1333.8842
		C1211.8287,1333.884,1211.7021,1333.9713,1211.8286,1333.8842z M1449.8649,1488.7777
		C1450.4043,1489.5237,1449.5669,1488.3651,1449.8649,1488.7777C1449.9133,1488.8447,1449.8431,1488.7476,1449.8649,1488.7777z
		 M1798.8921,1197.9456c-0.5493,0.1794-1.0963,0.3654-1.6426,0.5535C1797.5649,1197.9957,1798.2866,1197.8573,1798.8921,1197.9456z
		 M1368.5657,1023.1039c-0.0175-0.0354-0.0409-0.0531-0.0703-0.0531l0,0
		C1368.719,1023.0025,1368.6199,1023.0467,1368.5657,1023.1039C1368.543,1023.0848,1368.5859,1023.0825,1368.5657,1023.1039z
		 M1435.6074,470.1174C1435.656,470.0708,1435.2155,470.4971,1435.6074,470.1174
		C1435.5643,470.1588,1435.6074,470.1174,1435.6074,470.1174z M1428.4548,472.2095
		C1428.465,472.3247,1428.3295,472.2095,1428.4548,472.2095C1428.4565,472.229,1428.4347,472.2095,1428.4548,472.2095z
		 M1420.1636,508.0564c0.0001,0,0.0002,0,0.0002,0C1420.1637,508.0565,1420.1635,508.0565,1420.1636,508.0564z M1451.8098,696.4453
		C1451.769,696.4158,1451.8098,696.4053,1451.8098,696.4453C1451.8016,696.4394,1451.8098,696.4362,1451.8098,696.4453z
		 M1364.3154,705.5558C1363.8041,705.634,1364.6136,705.4357,1364.3154,705.5558
		C1364.2623,705.5639,1364.3198,705.554,1364.3154,705.5558z M1261.8772,306.3711c-0.0161-0.0028-0.0323-0.0042-0.0486-0.0042
		C1261.8816,306.2023,1261.8978,306.2037,1261.8772,306.3711C1261.8608,306.369,1261.8794,306.3286,1261.8772,306.3711z
		 M895.9295,857.1389c-0.1339-0.0002-0.1687-0.0686-0.1486-0.1749C895.8306,857.0222,895.8796,857.081,895.9295,857.1389z
		 M968.6595,912.3919C968.7898,912.5303,968.5908,912.5242,968.6595,912.3919
		C968.6838,912.4177,968.6456,912.4188,968.6595,912.3919z M1032.3423,1034.4688
		C1033.1849,1035.0699,1030.9495,1035.0332,1032.3423,1034.4688C1032.4515,1034.5468,1032.1563,1034.5442,1032.3423,1034.4688z
		 M1203.5068,1213.9128C1203.4791,1213.8501,1203.6233,1213.9106,1203.5068,1213.9128
		C1203.5027,1213.9034,1203.5232,1213.9125,1203.5068,1213.9128z M1363.4907,1156.3809
		C1363.4907,1156.5797,1363.3929,1156.4303,1363.4907,1156.3809C1363.4907,1156.4165,1363.4688,1156.392,1363.4907,1156.3809z
		 M1513.1262,835.0095C1513.1262,835.0148,1513.0432,835.0708,1513.1262,835.0095
		C1513.1262,835.0101,1513.1155,835.0174,1513.1262,835.0095z M1700.9956,712.2177
		C1701.0167,712.2455,1700.9956,712.2559,1700.9956,712.2177C1701.0012,712.225,1700.9956,712.2177,1700.9956,712.2177z
		 M1701.1538,712.224C1700.3779,712.1999,1702.0972,712.0385,1701.1538,712.224
		C1701.1008,712.2224,1701.3027,712.1947,1701.1538,712.224z M1805.4559,586.6724
		C1805.322,586.545,1805.5175,586.0528,1805.4559,586.6724C1805.4142,586.6327,1805.4656,586.5753,1805.4559,586.6724z
		 M1825.7762,443.5107C1825.7366,443.3609,1825.8318,443.3607,1825.7762,443.5107
		C1825.7664,443.4734,1825.7893,443.4755,1825.7762,443.5107z M1850.2556,39.8264
		C1850.0776,39.6554,1850.3099,39.6668,1850.2556,39.8264C1850.2246,39.7966,1850.27,39.7841,1850.2556,39.8264z
		 M1440.1652,612.2183C1440.2646,612.1685,1440.1641,612.4677,1440.1652,612.2183
		C1440.1653,612.2182,1440.165,612.2455,1440.1652,612.2183z M1180.1655,211.3865
		C1180.166,211.3865,1180.1652,211.3905,1180.1655,211.3865C1180.1658,211.3865,1180.1655,211.3865,1180.1655,211.3865z
		 M1180.1655,211.3862L1180.1655,211.3862L1180.1655,211.3862L1180.1655,211.3862z M771.9483,777.9845
		C771.6654,777.959,771.9337,777.8937,771.9483,777.9845C771.9036,777.9805,771.9433,777.9535,771.9483,777.9845z
		 M770.2203,778.0224C770.1758,778.0684,770.0969,778.0259,770.2203,778.0224C770.2081,778.035,770.197,778.0231,770.2203,778.0224z
		 M765.8503,775.6919C766.0511,775.4504,765.9986,775.6893,765.8503,775.6919
		C765.8923,775.6414,765.8776,775.6914,765.8503,775.6919z M955.9916,1094.7142
		C956.0176,1094.6937,956.0392,1094.7142,955.9916,1094.7142C955.9977,1094.7094,956.0016,1094.7142,955.9916,1094.7142z
		 M825.1708,1152.1866C825.2219,1152.2203,825.1697,1152.2264,825.1708,1152.1866
		C825.1807,1152.1931,825.1705,1152.1958,825.1708,1152.1866z M1076.9373,1202.2831
		C1076.7401,1202.1573,1077.1791,1202.0977,1076.9373,1202.2831C1076.9067,1202.2637,1076.9727,1202.256,1076.9373,1202.2831z
		 M1086.8333,1220.5571C1086.842,1220.5571,1086.824,1220.5671,1086.8333,1220.5571
		C1086.8335,1220.5571,1086.8324,1220.558,1086.8333,1220.5571z M1114.6387,1250.8225
		C1114.6046,1250.0208,1114.8538,1250.4084,1114.6387,1250.8225C1114.6384,1250.8168,1114.6874,1250.7288,1114.6387,1250.8225z
		 M1156.9102,1226.3027c0.019-0.0192,0.0383-0.0383,0.0574-0.0575C1156.96,1226.2656,1156.9407,1226.2848,1156.9102,1226.3027z
		 M1223.4059,1302.1599C1223.5771,1302.2863,1223.2317,1302.3269,1223.4059,1302.1599
		C1223.4341,1302.1807,1223.3782,1302.1864,1223.4059,1302.1599z M1430.2998,944.0284c-0.2975,0.2415-0.8385,0.4585-1.1521,0.05
		C1429.5317,944.0618,1429.9158,944.0451,1430.2998,944.0284C1429.9282,944.33,1429.9142,944.0282,1430.2998,944.0284z
		 M1690.9844,717.2035C1690.9205,717.3568,1690.8876,717.0832,1690.9844,717.2035
		C1690.9812,717.2111,1690.9728,717.1891,1690.9844,717.2035z M1691.1021,718.05
		C1691.0487,718.0504,1690.9293,717.8981,1691.1021,718.05C1691.0903,718.0501,1691.0757,718.0269,1691.1021,718.05z
		 M1858.5431,101.2266C1858.5057,101.3501,1857.9825,101.3573,1858.5431,101.2266
		C1858.5298,101.2706,1858.4651,101.2448,1858.5431,101.2266z M1698.4688,103.0129
		C1698.4688,103.0129,1698.4691,103.0129,1698.4688,103.0129C1698.4688,103.0129,1698.4689,103.0129,1698.4688,103.0129z
		 M1416.8289,799.7158C1416.8638,799.6436,1416.8676,799.697,1416.8289,799.7158
		C1416.8289,799.7158,1416.8418,799.7095,1416.8289,799.7158z M1181.8208,209.7218
		C1181.7263,209.5211,1181.8212,209.5647,1181.8208,209.7218C1181.8208,209.7218,1181.8209,209.6763,1181.8208,209.7218z
		 M1178.5381,311.3217C1178.5768,311.3308,1178.531,311.3787,1178.5381,311.3217
		C1178.5453,311.3234,1178.5369,311.3314,1178.5381,311.3217z M1160.17,464.7047
		C1159.9512,464.5648,1160.17,464.4047,1160.17,464.7047C1160.1179,464.6714,1160.17,464.6448,1160.17,464.7047z
		 M1205.0806,654.7556C1205.0814,654.757,1205.0807,654.756,1205.0806,654.7556
		C1205.0807,654.7558,1205.0806,654.7556,1205.0806,654.7556z M1214.3256,671.3935
		C1214.4418,671.3741,1213.1207,671.6804,1214.3256,671.3935C1214.3259,671.3934,1214.1587,671.4332,1214.3256,671.3935z
		 M910.4166,796.3838C910.2853,796.3838,910.3964,796.3221,910.4166,796.3838C910.393,796.3838,910.4125,796.3712,910.4166,796.3838
		z M668.6189,883.2895C668.5895,883.0948,668.6724,883.2085,668.6189,883.2895
		C668.6134,883.2532,668.6329,883.2682,668.6189,883.2895z M670.1914,890.4521
		C670.1914,891.5674,669.5579,890.2927,670.1914,890.4521C670.1914,890.6119,670.0723,890.4222,670.1914,890.4521z
		 M947.8332,1094.7192C947.4342,1094.708,947.822,1094.6396,947.8332,1094.7192
		C947.7746,1094.7175,947.83,1094.6963,947.8332,1094.7192z M936.827,1099.7144
		C936.4259,1099.7144,936.0964,1100.0909,936.827,1099.7144C936.8271,1099.7144,936.827,1099.7144,936.827,1099.7144z
		 M796.6498,1120.696c-0.3186-0.1943-0.6371-0.3887-0.9557-0.5831C796.2746,1119.8838,796.4802,1120.1179,796.6498,1120.696
		C796.3411,1120.4856,796.5156,1120.2385,796.6498,1120.696z M1260.1588,1283.0575
		C1260.1405,1283.0481,1260.1594,1283.0358,1260.1588,1283.0575C1260.1548,1283.0554,1260.1589,1283.0532,1260.1588,1283.0575z
		 M1476.9526,1140.5883c-0.0377-0.0021-0.0686-0.0118-0.0918-0.0298C1476.8917,1140.5676,1476.9218,1140.579,1476.9526,1140.5883z
		 M1415.1934,1031.3824C1415.1919,1031.4752,1415.1387,1031.3872,1415.1934,1031.3824
		C1415.1931,1031.3978,1415.1829,1031.3833,1415.1934,1031.3824z M1414.8442,944.0103
		C1414.8632,944.3892,1414.1528,944.3599,1414.8442,944.0103C1414.8485,944.0957,1414.7245,944.0709,1414.8442,944.0103z
		 M1448.9077,973.7016C1449.2102,973.7693,1448.7683,974.3493,1448.9077,973.7016
		C1448.9426,973.7094,1448.8552,973.9454,1448.9077,973.7016z M1805.1936,583.0493
		C1805.0913,582.9725,1805.2335,583.0493,1805.1936,583.0493C1805.1824,583.0408,1805.196,583.0493,1805.1936,583.0493z
		 M1347.6575,849.7109C1347.3704,849.7903,1347.3708,849.7902,1347.6575,849.7109L1347.6575,849.7109z M1322.7856,786.7452
		C1322.7856,786.7452,1322.7856,786.7452,1322.7856,786.7452L1322.7856,786.7452z M1326.0863,779.9561c0-0.0001,0-0.0001,0-0.0001
		V779.9561z M1330.2329,772.2607C1330.2327,772.261,1330.2335,772.2599,1330.2329,772.2607L1330.2329,772.2607z M1336.8589,760.5664
		C1336.8585,760.5671,1336.858,760.5673,1336.8589,760.5664C1336.8589,760.5664,1336.8586,760.5667,1336.8589,760.5664z
		 M1361.0964,718.3314C1361.0964,718.3312,1361.0964,718.3306,1361.0964,718.3314
		C1361.0964,718.3313,1361.0964,718.3312,1361.0964,718.3314z M1361.3127,716.5831c0.2209,0.16,0.4412,0.3347,0.4921,0.589
		C1361.5535,716.9261,1361.4022,716.7371,1361.3127,716.5831z M1366.9478,708.3776
		C1366.9478,708.3773,1366.9478,708.3773,1366.9478,708.3776L1366.9478,708.3776z M1369.4346,704.171
		C1369.4346,704.1708,1369.4346,704.1706,1369.4346,704.171C1369.4346,704.171,1369.4346,704.1709,1369.4346,704.171z
		 M1405.1746,647.2381C1405.1747,647.238,1405.1758,647.2371,1405.1746,647.2381
		C1405.1748,647.238,1405.1746,647.2381,1405.1746,647.2381z M1412.8201,584.5481
		C1412.8195,584.5491,1412.8168,584.5486,1412.8201,584.5481C1412.8198,584.5485,1412.8201,584.5481,1412.8201,584.5481z
		 M1286.6951,298.9506C1286.703,298.8873,1286.729,298.9156,1286.6951,298.9506
		C1286.6968,298.937,1286.7036,298.9418,1286.6951,298.9506z M1178.5232,366.9658
		C1178.4587,367.3738,1177.7882,367.0009,1178.5232,366.9658C1178.51,367.0493,1178.3877,366.9723,1178.5232,366.9658z
		 M1102.8748,899.7986C1102.7947,901.0759,1102.1115,899.9202,1102.8748,899.7986
		C1102.8606,900.0244,1102.6992,899.8265,1102.8748,899.7986z M764.3922,763.1322
		C765.2836,764.1149,763.4615,762.1074,764.3922,763.1322C764.4767,763.2254,764.304,763.0351,764.3922,763.1322z
		 M683.7168,816.5334c-0.1879,0.0358-0.3063,0.1338-0.2191-0.1515C683.4977,816.3771,685.6793,817.8871,683.7168,816.5334
		C683.6429,816.5475,683.6438,816.483,683.7168,816.5334z M647.7106,859.7442
		C647.8658,859.7685,647.8507,860.1915,647.7106,859.7442C647.7562,859.7513,647.7341,859.8194,647.7106,859.7442z
		 M665.1725,897.0889C665.2452,897.3741,664.9658,897.6443,665.1725,897.0889
		C665.2004,897.1982,665.1725,897.0889,665.1725,897.0889z M811.9793,1113.1001
		C811.905,1113.1752,811.67,1112.9912,811.9793,1113.1001C811.9631,1113.1165,811.9299,1113.0826,811.9793,1113.1001z
		 M847.561,1158.0104C846.9871,1157.4833,847.4708,1157.9078,847.561,1158.0104
		C847.561,1158.0104,847.5146,1157.9576,847.561,1158.0104z M870.5898,1153.1476L870.5898,1153.1476L870.5898,1153.1476
		L870.5898,1153.1476z M1041.7542,1106.4014C1041.7545,1106.4009,1041.7545,1106.4009,1041.7542,1106.4014
		C1041.7542,1106.4012,1041.7542,1106.4012,1041.7542,1106.4014z M1348.4672,1129.772
		C1348.7432,1129.7433,1348.7192,1130.1782,1348.4672,1129.772C1348.5233,1129.7661,1348.4672,1129.772,1348.4672,1129.772z
		 M1379.3667,1261.2441c0.0001,0,0.0001,0.0001,0.0002,0.0001C1379.3668,1261.2443,1379.3668,1261.2441,1379.3667,1261.2441z
		 M1500.9858,1529.7142C1501.0078,1529.6564,1501.0486,1529.7139,1500.9858,1529.7142
		C1500.9905,1529.702,1500.9978,1529.7141,1500.9858,1529.7142z"/>
	<path fill="#E86A33" d="M1241.8289,1319.7395c-0.2817,0.238-0.5635,0.4762-0.8452,0.7144
		C1241.4958,1320.4884,1241.7375,1320.2029,1241.8289,1319.7395z"/>
	<path fill="#E86A33" d="M1221.8242,1336.4044c-0.2764,0.2454-0.5527,0.4906-0.829,0.736
		C1221.4976,1337.1498,1221.7554,1336.8835,1221.8242,1336.4044z"/>
	<path fill="#E86A33" d="M982.0386,804.0582C981.6533,803.7771,982.023,804.1185,982.0386,804.0582
		C982.0386,804.0582,982.0356,804.0698,982.0386,804.0582z"/>
	<path fill="#E86A33" d="M970.3588,784.9095C969.9186,784.4772,970.3497,784.9335,970.3588,784.9095
		C970.3588,784.9095,970.3563,784.9161,970.3588,784.9095z"/>
	<path fill="#E86A33" d="M921.2167,781.5191C920.7517,781.2712,921.2115,781.5666,921.2167,781.5191
		C921.2167,781.5191,921.2156,781.5293,921.2167,781.5191z"/>
	<path fill="#E86A33" d="M1895.0996,37.9702C1895.094,37.9771,1895.054,38.0339,1895.0996,37.9702
		C1895.0942,37.9768,1895.0996,37.9702,1895.0996,37.9702z"/>
	<path fill="#E86A33" d="M654.3899,805.8279c0.3047,0.1617,0.6094,0.3235,0.9142,0.4852
		C655.1332,805.8992,654.8608,805.6765,654.3899,805.8279z"/>
	<path fill="#E86A33" d="M1029.3494,1116.4294c-0.2769,0.2296-0.554,0.4594-0.8308,0.689
		C1029.0029,1117.1388,1029.2375,1116.8583,1029.3494,1116.4294z"/>
</g>
</svg>
